<svg width="20" height="20" viewBox="0 0 20 20" fill="none" xmlns="http://www.w3.org/2000/svg">
<path fill-rule="evenodd" clip-rule="evenodd" d="M17.5 0.000244141H2.5C1.11929 0.000244141 0 1.11953 0 2.50024V17.5002C0 18.881 1.11929 20.0002 2.5 20.0002H17.5C18.8807 20.0002 20 18.881 20 17.5002V2.50024C20 1.11953 18.8807 0.000244141 17.5 0.000244141ZM5 7.75024C5.55228 7.75024 6 8.19796 6 8.75024V15.0002C6 15.5525 5.55228 16.0002 5 16.0002C4.44772 16.0002 4 15.5525 4 15.0002V8.75024C4 8.19796 4.44772 7.75024 5 7.75024ZM6 5.00024C6 4.44796 5.55228 4.00024 5 4.00024C4.44772 4.00024 4 4.44796 4 5.00024V5.01274C4 5.56503 4.44772 6.01274 5 6.01274C5.55228 6.01274 6 5.56503 6 5.01274V5.00024ZM10.821 8.17923C10.6404 7.91993 10.34 7.75024 10 7.75024C9.44771 7.75024 9 8.19796 9 8.75024V15.0002C9 15.5525 9.44771 16.0002 10 16.0002C10.5523 16.0002 11 15.5525 11 15.0002V11.2502C11 10.8524 11.158 10.4709 11.4393 10.1896C11.7206 9.90828 12.1022 9.75024 12.5 9.75024C12.8978 9.75024 13.2794 9.90828 13.5607 10.1896C13.842 10.4709 14 10.8524 14 11.2502V15.0002C14 15.5525 14.4477 16.0002 15 16.0002C15.5523 16.0002 16 15.5525 16 15.0002V11.2502C16 10.322 15.6313 9.43175 14.9749 8.77537C14.3185 8.11899 13.4283 7.75024 12.5 7.75024C11.9079 7.75024 11.3314 7.90026 10.821 8.17923Z" fill="#9DB7CE"/>
</svg>
