<svg width="25" height="20" viewBox="0 0 25 20" fill="none" xmlns="http://www.w3.org/2000/svg">
<path d="M24.9525 0.138231C23.7048 0.749566 22.4822 0.997843 21.2096 1.37338C19.811 -0.204866 17.7375 -0.2922 15.745 0.453879C13.7526 1.19996 12.4475 3.02398 12.4762 5.11625V6.36387C8.4277 6.46742 4.82206 4.62344 2.49525 1.37338C2.49525 1.37338 -2.72231 10.647 7.48574 15.0972C5.15019 16.653 2.82088 17.7023 0 17.5925C4.12714 19.8419 8.62482 20.6155 12.5187 19.4851C16.9851 18.1876 20.6557 14.8402 22.0642 9.82603C22.4844 8.30102 22.693 6.72551 22.6843 5.1437C22.6818 4.83304 24.5682 1.68528 24.9525 0.136983V0.138231Z" fill="#9DB7CE"/>
</svg>
