<svg xmlns="http://www.w3.org/2000/svg" width="199" height="286" viewBox="0 0 199 286" fill="none">
<path opacity="0.42" d="M112.923 285.703C154.831 285.703 188.805 278.705 188.805 270.072C188.805 261.439 154.831 254.441 112.923 254.441C71.0145 254.441 37.041 261.439 37.041 270.072C37.041 278.705 71.0145 285.703 112.923 285.703Z" fill="#14143F"/>
<path d="M132.906 250.678C137.913 249.568 142.883 248.147 147.839 246.509L146.001 202.517C142.231 202.734 138.436 203.366 134.735 204.389L132.906 250.678Z" fill="#2196f3"/>
<path d="M135.726 179.315L134.735 204.389C138.436 203.367 142.231 202.735 146.001 202.517L145.201 183.362C145.201 183.362 144.365 176.151 135.726 179.315Z" fill="#177bcf"/>
<path d="M176.152 259.949C176.152 259.949 181.567 261.342 182.682 263.99C182.682 263.99 182.125 245.876 148.127 253.4L147.839 246.508C142.883 248.145 137.913 249.566 132.906 250.677L132.661 256.883C132.661 256.883 132.034 262.108 141.021 265.243C150.008 268.378 173.245 282.172 176.571 276.32C179.896 270.468 175.88 264.616 162.944 264.825C162.944 264.825 172.961 263.292 177.683 269.562C177.683 269.562 181.429 269.423 181.847 265.661C182.264 261.9 176.152 259.949 176.152 259.949Z" fill="#60e0fc"/>
<path d="M148.127 253.401C148.127 253.401 162.862 247.166 166.937 250.092C171.013 253.018 159.517 254.481 159.517 254.481C159.517 254.481 167.25 251.973 168.609 255.839C169.968 259.706 157.666 258.765 157.666 258.765C157.666 258.765 165.892 259.705 162.234 262.214C158.576 264.722 134.75 265.035 132.66 256.884L133.234 242.356L147.635 241.643L148.127 253.401Z" fill="#2196f3"/>
<path d="M162.944 264.826C162.944 264.826 176.15 263.731 177.5 271.071C177.5 271.071 181.39 263.009 162.944 264.826Z" fill="#2196f3"/>
<path d="M181.779 264.56C181.779 264.56 180.522 260.751 171.43 258.243C171.43 258.243 185.824 260.588 181.779 264.56Z" fill="#2196f3"/>
<path d="M96.993 250.678C91.986 249.568 87.016 248.147 82.06 246.509L83.898 202.517C87.668 202.734 91.463 203.366 95.164 204.389L96.993 250.678Z" fill="#2196f3"/>
<path d="M94.173 179.315L95.164 204.389C91.463 203.367 87.668 202.735 83.898 202.517L84.698 183.362C84.698 183.362 85.535 176.151 94.173 179.315Z" fill="#177bcf"/>
<path d="M53.747 259.949C53.747 259.949 48.332 261.342 47.217 263.99C47.217 263.99 47.774 245.876 81.772 253.4L82.06 246.508C87.016 248.145 91.986 249.566 96.993 250.677L97.238 256.883C97.238 256.883 97.865 262.108 88.878 265.243C79.891 268.378 56.654 282.172 53.329 276.32C50.004 270.468 54.02 264.616 66.956 264.825C66.956 264.825 56.939 263.292 52.217 269.562C52.217 269.562 48.471 269.423 48.053 265.661C47.635 261.9 53.747 259.949 53.747 259.949Z" fill="#60e0fc"/>
<path d="M81.772 253.401C81.772 253.401 67.037 247.166 62.962 250.092C58.886 253.018 70.382 254.481 70.382 254.481C70.382 254.481 62.649 251.973 61.29 255.839C59.931 259.706 72.233 258.765 72.233 258.765C72.233 258.765 64.007 259.705 67.665 262.214C71.323 264.722 95.149 265.035 97.239 256.884L96.665 242.356L82.264 241.643L81.772 253.401Z" fill="#2196f3"/>
<path d="M66.956 264.826C66.956 264.826 53.75 263.731 52.4 271.071C52.4 271.071 48.509 263.009 66.956 264.826Z" fill="#2196f3"/>
<path d="M48.12 264.56C48.12 264.56 49.377 260.751 58.469 258.243C58.469 258.243 44.075 260.588 48.12 264.56Z" fill="#2196f3"/>
<path d="M2.58002 201.148L37.051 195.537C37.051 195.537 37.297 193.988 37.337 192.145C25.033 193.66 12.733 195.148 0.528015 197.489C0.791015 198.728 1.38902 200.011 2.58002 201.148Z" fill="#9E4C15"/>
<path d="M34.241 186.118L1.14102 191.974C1.14102 191.974 0.75002 192.818 0.52002 194.072C12.885 192.822 25.003 190.832 37.041 188.6C36.661 187 35.854 185.832 34.241 186.118Z" fill="#CE7132"/>
<path d="M0.520011 194.071C0.344011 195.034 0.26201 196.239 0.52801 197.489C12.732 195.148 25.033 193.659 37.337 192.145C37.362 190.974 37.3 189.688 37.042 188.599C25.003 190.831 12.885 192.821 0.520011 194.071Z" fill="#B75D21"/>
<path d="M73.766 75.337C67.303 78.867 49.436 90.465 39.354 115.129C53.657 104.281 65.954 91.133 73.766 75.337Z" fill="#2189f3"/>
<path d="M39.354 115.129C35.042 125.676 32.151 138.607 32.19 154.326C32.19 154.326 31.692 191.857 38.595 197.517C38.595 197.517 40.42 198.28 42.16 197.211C42.16 197.211 44.495 197.809 46.534 195.572C46.534 195.572 50.557 197.034 52.877 193.748C52.877 193.748 49.744 184.051 54.883 182.165C54.883 182.165 56.136 178.716 52.022 177.847C52.022 177.847 42.094 132.3 64.602 111.949L76.185 74.117C76.185 74.117 75.293 74.502 73.766 75.336C65.954 91.133 53.657 104.281 39.354 115.129Z" fill="#2196f3"/>
<path d="M47.589 195.818C47.589 195.818 46.205 196.066 45.845 193.008C45.845 193.008 44.95 195.965 47.589 195.818Z" fill="#3f51b5"/>
<path d="M42.159 197.211C42.159 197.211 41.078 197.191 40.268 193.862C40.268 193.862 39.957 196.692 42.159 197.211Z" fill="#3f51b5"/>
<path d="M64.602 111.949C64.602 111.949 48.641 119.359 44.043 149.247C39.445 179.135 50.364 180.64 50.364 180.64L52.022 177.847C52.022 177.847 41.85 141.198 64.602 111.949Z" fill="#3f51b5"/>
<path d="M156.561 75.337C163.024 78.867 180.891 90.465 190.973 115.129C176.671 104.281 164.374 91.133 156.561 75.337Z" fill="#2189f3"/>
<path d="M178.306 177.847C178.306 177.847 188.234 132.3 165.726 111.949L154.143 74.117C154.143 74.117 155.035 74.502 156.562 75.336C164.374 91.133 176.671 104.28 190.974 115.128C195.286 125.675 198.177 138.606 198.138 154.325C198.138 154.325 198.845 186.518 192.575 195.436C192.575 195.436 186.784 204.911 181.598 204.354C176.412 203.797 183.518 196.83 182.821 195.158C182.124 193.486 178.362 204.215 174.182 203.379C170.002 202.543 180.173 190.024 178.501 188.69C176.829 187.356 174.739 196.552 170.002 196.273C165.265 195.994 177.413 181.018 178.306 177.847Z" fill="#2196f3"/>
<path d="M165.725 111.949C165.725 111.949 181.686 119.359 186.284 149.247C190.882 179.135 179.963 180.64 179.963 180.64L178.305 177.847C178.305 177.847 188.477 141.198 165.725 111.949Z" fill="#3f51b5"/>
<path d="M80.395 24.025C80.395 24.025 74.648 21.866 74.018 18.448C74.018 18.448 77.976 8.464 72.579 2.797C67.182 -2.87 56.299 4.956 56.029 13.411C56.029 13.411 49.913 17.189 44.426 9.903C44.426 9.903 40.918 23.305 57.378 28.432C57.378 28.432 63.69 40.845 76.185 43.813C76.185 43.813 75.798 30.771 80.395 24.025Z" fill="#60e0fc"/>
<path d="M84.668 22.048C84.668 22.048 80.524 19.228 78.485 24.969C76.446 30.71 72.804 46.458 78.283 48.307C83.762 50.157 86.893 23.942 84.668 22.048Z" fill="#3f51b5"/>
<path d="M70.78 8.914C70.78 8.914 72.164 19.785 79.163 23.479C79.163 23.479 70.6 21.327 70.78 8.914Z" fill="#2196f3"/>
<path d="M56.303 11.344C56.303 11.344 52.97 21.957 58.497 30.322C58.497 30.322 55.59 23.8 56.303 11.344Z" fill="#2196f3"/>
<path d="M148.97 24.025C148.97 24.025 154.717 21.866 155.347 18.448C155.347 18.448 151.389 8.464 156.786 2.797C162.183 -2.87 173.066 4.956 173.336 13.411C173.336 13.411 179.452 17.189 184.939 9.903C184.939 9.903 188.447 23.305 171.987 28.432C171.987 28.432 165.675 40.845 153.18 43.813C153.18 43.813 153.567 30.771 148.97 24.025Z" fill="#60e0fc"/>
<path d="M144.697 22.048C144.697 22.048 148.841 19.228 150.879 24.969C152.917 30.71 156.56 46.458 151.081 48.307C145.603 50.157 142.472 23.942 144.697 22.048Z" fill="#3f51b5"/>
<path d="M158.585 8.914C158.585 8.914 157.201 19.785 150.202 23.479C150.202 23.479 158.765 21.327 158.585 8.914Z" fill="#2196f3"/>
<path d="M173.062 11.344C173.062 11.344 176.394 21.957 170.868 30.322C170.868 30.322 173.775 23.8 173.062 11.344Z" fill="#2196f3"/>
<path d="M154.028 74.221L115.231 78.072L76.363 74.221C76.363 74.221 45.745 102.849 51.022 149.382C55.356 187.596 99.563 190.383 115.231 190.159C130.899 190.384 175.107 187.596 179.44 149.382C184.717 102.849 154.028 74.221 154.028 74.221Z" fill="#2196f3"/>
<path d="M150.466 64.591L150.439 64.605C150.986 62.347 151.283 59.995 151.283 57.576V40.306C151.283 31.46 147.406 23.479 141.27 17.968C141.185 18.045 141.106 18.125 141.02 18.201C124.918 31.375 101.127 33.015 85.915 20.317C81.152 25.636 78.245 32.646 78.245 40.305V57.575C78.245 60.054 78.555 62.463 79.128 64.771C78.111 65.19 76.453 66.579 76.206 71.187C75.846 77.903 79.924 80.422 79.924 80.422C79.924 80.422 93.596 92.175 114.763 91.335V87.617H115.625V91.335C136.793 92.174 150.465 80.422 150.465 80.422C150.465 80.422 154.543 77.903 154.183 71.187C153.824 64.471 150.466 64.591 150.466 64.591Z" fill="#2196f3"/>
<path d="M141.021 18.201C141.107 18.125 141.186 18.044 141.271 17.968C135.945 13.185 128.919 10.264 121.241 10.264H118.474C119.568 8.46101 120.316 6.08801 117.583 5.10701C113.103 3.49901 113.574 7.02501 113.622 7.32601C113.567 6.99501 112.827 2.72301 110.867 3.06901C108.828 3.42901 110.028 7.26701 110.028 7.26701C110.028 7.26701 102.233 -0.767992 102.233 3.30901C102.233 5.67701 105.145 8.40801 107.587 10.283C99.004 10.483 91.282 14.327 85.917 20.319C101.128 33.015 124.919 31.375 141.021 18.201Z" fill="#3f51b5"/>
<path d="M79.129 64.771C79.129 64.771 90.932 75.984 115.231 75.984C139.53 75.984 150.466 64.591 150.466 64.591C150.466 64.591 143.581 75.984 115.231 77.184C86.881 78.383 79.129 64.771 79.129 64.771Z" fill="#3f51b5"/>
<path d="M79.129 77.439C79.129 77.439 90.932 88.652 115.231 88.652C139.53 88.652 150.466 77.259 150.466 77.259C150.466 77.259 143.581 88.652 115.231 89.852C86.881 91.051 79.129 77.439 79.129 77.439Z" fill="#3f51b5"/>
<path d="M115.164 180.64C139.268 180.64 158.809 162.474 158.809 140.065C158.809 117.656 139.268 99.49 115.164 99.49C91.0595 99.49 71.519 117.656 71.519 140.065C71.519 162.474 91.0595 180.64 115.164 180.64Z" fill="#60e0fc"/>
<path opacity="0.4" d="M174.142 106.264C167.672 123.519 155.967 138.769 140.129 150.221C115.756 167.593 88.019 172.445 59.881 170.972C74.667 188.742 103.268 190.329 115.231 190.158C130.899 190.383 175.107 187.595 179.44 149.381C181.358 132.472 178.525 117.93 174.142 106.264Z" fill="#3f51b5"/>
<path d="M108.207 96.578C108.207 96.578 89.397 107.466 98.175 111.95C106.953 116.434 110.715 104.264 110.715 104.264C110.715 104.264 107.162 111.54 110.715 112.942C114.268 114.344 117.612 104.76 117.612 104.76C117.612 104.76 116.567 109.955 123.046 110.164C129.525 110.373 124.3 97.624 124.3 97.624C124.3 97.624 115.94 92.816 108.207 96.578Z" fill="#2196f3"/>
<path d="M69.018 82.668C72.034 78.617 74.191 76.478 74.191 76.478C72.353 78.137 70.629 80.242 69.018 82.668Z" fill="#3f51b5"/>
<path d="M48.777 144.866C48.777 144.866 54.5 104.786 67.384 85.391C60.12 95.149 47.872 116.01 48.777 144.866Z" fill="#3f51b5"/>
<path d="M181.55 144.866C181.55 144.866 175.827 104.786 162.943 85.391C170.208 95.149 182.455 116.01 181.55 144.866Z" fill="#3f51b5"/>
<path d="M96.305 215L83.711 188.69H81.309L96.305 215Z" fill="#878787"/>
<path d="M83.892 165.649C83.892 165.649 80.824 169.741 81.309 178.429L80.033 178.673C80.033 178.673 78.615 170.506 83.892 165.649Z" fill="#878787"/>
<path d="M51.965 190.272C52.149 191.298 52.443 192.451 52.876 193.748L65.273 191.254C65.273 191.254 64.754 190.21 64.395 188.406C60.257 189.094 56.113 189.705 51.965 190.272Z" fill="#9E4C15"/>
<path d="M64.553 180.64L54.882 182.164C54.882 182.164 52.618 182.64 51.922 185.748C55.992 184.951 60.061 184.15 64.134 183.362C64.206 182.504 64.334 181.599 64.553 180.64Z" fill="#CE7132"/>
<path d="M64.134 183.362C60.061 184.15 55.992 184.951 51.922 185.748C51.669 186.876 51.618 188.342 51.964 190.271C56.112 189.705 60.257 189.093 64.394 188.405C64.133 187.094 63.964 185.374 64.134 183.362Z" fill="#B75D21"/>
<path d="M58.887 167.868C58.887 167.868 64.374 171.49 64.554 180.64C64.554 180.64 62.935 185.677 65.274 191.254C65.274 191.254 70.491 206.725 62.081 216.079C62.081 216.079 79.935 223.815 96.306 215L82.094 190.169C82.094 190.169 78.199 184.27 80.238 178.634C80.238 178.634 78.616 170.926 83.893 165.649C83.893 165.649 71.539 162.531 58.887 167.868Z" fill="#BCBCBC"/>
<path d="M80.033 178.673L86.051 177.522C86.051 177.522 85.211 179.321 86.051 181.12L84.192 181.78L86.051 181.96C86.051 181.96 85.991 185.678 87.91 187.777L81.54 189.163C81.54 189.163 78.272 184.321 80.033 178.673Z" fill="#B75D21"/>
<path d="M89.233 182.345C89.641 185.192 88.895 187.655 87.566 187.845C86.237 188.035 84.829 185.882 84.421 183.035C84.013 180.188 84.759 177.725 86.088 177.535C87.417 177.344 88.825 179.497 89.233 182.345Z" fill="#CC7236"/>
<path d="M62.08 216.079C62.08 216.079 64.941 213.015 66.353 207.256C66.353 207.256 72.622 211.007 79.86 209.962L81.876 214.999V209.962C81.876 209.962 88.251 209.661 91.123 205.945L96.305 214.999C96.305 214.999 82.73 224.704 62.08 216.079Z" fill="#DDDDDD"/>
<path d="M66.615 191.605L80.967 190.169C80.967 190.169 74.766 192.58 66.615 191.605Z" fill="#878787"/>
<path d="M65.273 180.11L79.192 178.647C79.192 178.647 71.873 177.88 65.273 180.11Z" fill="#878787"/>
<path d="M58.887 167.868C58.887 167.868 61.906 170.239 62.907 173.048C62.907 173.048 66.703 171.471 72.233 171.68V167.152L73.791 171.82H80.409C80.409 171.82 81.592 167.491 83.892 165.65C83.892 165.65 70.108 162.104 58.887 167.868Z" fill="#DDDDDD"/>
<path d="M100.068 42.929C100.004 45.91 100.84 48.36 101.936 48.4C103.033 48.441 103.973 46.058 104.038 43.077C104.103 40.097 103.266 37.647 102.169 37.606C101.073 37.566 100.132 39.949 100.068 42.929Z" fill="#181818"/>
<path d="M123.09 42.929C123.026 45.909 123.863 48.359 124.958 48.4C126.055 48.441 126.996 46.058 127.06 43.077C127.124 40.097 126.287 37.647 125.191 37.606C124.096 37.566 123.155 39.949 123.09 42.929Z" fill="#181818"/>
<path d="M96.502 35.667C95.928 34.64 96.899 33.421 98.043 33.695C101.309 34.477 108.556 36.546 107.58 39.31C106.571 42.168 98.331 38.942 96.502 35.667Z" fill="#3f51b5"/>
<path d="M131.696 35.667C132.27 34.64 131.299 33.421 130.155 33.695C126.889 34.477 119.642 36.546 120.618 39.31C121.626 42.168 129.867 38.942 131.696 35.667Z" fill="#3f51b5"/>
<path d="M118.503 62.17C115.194 60.926 111.507 61.004 108.325 62.536C108.275 62.56 108.225 62.584 108.174 62.609C103.146 65.062 98.467 57.787 104.724 53.468C110.981 49.15 120.476 49.743 124.685 54.522C128.369 58.704 124.939 64.591 118.503 62.17Z" fill="#181818"/>
<path d="M114.547 67.177C119.934 67.177 124.301 64.9626 124.301 62.231C124.301 59.4994 119.934 57.285 114.547 57.285C109.16 57.285 104.793 59.4994 104.793 62.231C104.793 64.9626 109.16 67.177 114.547 67.177Z" fill="#D04642"/>
<path d="M108.625 64.591C108.625 64.591 113.955 62.074 119.493 64.591C119.493 64.591 114.791 60.611 108.625 64.591Z" fill="#3f51b5"/>
<path d="M124.3 63.707C124.3 63.707 127.801 62.771 128.219 59.009C128.219 59.009 129.212 63.389 124.3 63.707Z" fill="#3f51b5"/>
<path d="M103.719 63.707C103.719 63.707 100.218 62.771 99.8 59.009C99.8 59.009 98.808 63.389 103.719 63.707Z" fill="#3f51b5"/>
</svg>