<svg width="31" height="35" viewBox="0 0 31 35" fill="none" xmlns="http://www.w3.org/2000/svg">
<path d="M29.8824 6.04373C25.0668 4.72426 20.223 2.66972 15.8744 0.102283C15.6435 -0.0340942 15.3568 -0.0340942 15.1259 0.102283C10.6519 2.74348 6.06981 4.68686 1.11752 6.04373C0.797601 6.13129 0.575844 6.42209 0.575844 6.75384V14.2765C0.575844 22.0232 4.1496 27.1509 7.1477 30.0884C10.3753 33.251 14.1351 35 15.5002 35C16.8651 35 20.6249 33.251 23.8525 30.0884C26.8505 27.151 30.4241 22.0232 30.4241 14.2765V6.75377C30.4241 6.42209 30.2023 6.13129 29.8824 6.04373ZM28.9516 14.2764C28.9516 21.5118 25.6184 26.2966 22.8219 29.0366C19.6479 32.1466 16.2544 33.5274 15.5002 33.5274C14.746 33.5274 11.3522 32.1466 8.17814 29.0366C5.38177 26.2965 2.04837 21.5118 2.04837 14.2764V7.31268C6.78416 5.96805 11.1946 4.09152 15.5003 1.58937C19.6985 4.02515 24.329 5.99499 28.9516 7.3124V14.2764Z" fill="#99E39E"/>
<path d="M8.97427 7.23028C8.82524 6.85191 8.39779 6.66604 8.01935 6.81514C6.70412 7.33337 5.35416 7.81038 4.007 8.23298C3.7 8.32936 3.4911 8.61374 3.4911 8.93543V11.7786C3.4911 12.1852 3.82079 12.5148 4.22733 12.5148C4.63386 12.5148 4.96356 12.1852 4.96356 11.7786V9.47349C6.17208 9.08248 7.37931 8.64997 8.55912 8.18506C8.93749 8.0361 9.12336 7.60865 8.97427 7.23028Z" fill="#99E39E"/>
<path d="M10.3728 7.36999C10.4716 7.36999 10.5719 7.3501 10.6681 7.30812L10.6816 7.30224C11.0541 7.139 11.2218 6.7054 11.0586 6.33305C10.8952 5.96056 10.4591 5.79206 10.0871 5.95516L10.0752 5.96029C9.70248 6.12305 9.53418 6.55631 9.69695 6.92887C9.81774 7.20545 10.0888 7.36999 10.3728 7.36999Z" fill="#99E39E"/>
<path d="M24.272 23.74C23.9317 23.5176 23.4755 23.6132 23.2529 23.9536C22.6462 24.8822 21.9344 25.7714 21.1371 26.5963C20.4814 27.2745 19.7708 27.9067 19.0253 28.4751C18.702 28.7216 18.6398 29.1836 18.8862 29.507C19.0312 29.697 19.2504 29.7969 19.4722 29.7969C19.6279 29.7969 19.7848 29.7478 19.9181 29.6461C20.7223 29.0328 21.4886 28.3511 22.1956 27.6197C23.0577 26.7281 23.8281 25.7656 24.4856 24.759C24.7081 24.4186 24.6123 23.9623 24.272 23.74Z" fill="#99E39E"/>
<path d="M17.3154 29.6299L17.2732 29.6548C16.9214 29.8586 16.8011 30.3089 17.0048 30.6608C17.1413 30.8966 17.3885 31.0283 17.6427 31.0283C17.7678 31.0283 17.8948 30.9963 18.0108 30.929L18.0595 30.9004C18.4104 30.6949 18.5283 30.2439 18.3228 29.893C18.1172 29.5423 17.6661 29.4246 17.3154 29.6299Z" fill="#99E39E"/>
<path d="M10.4816 15.9973C10.0296 15.5452 9.42836 15.2964 8.78893 15.2964C8.1495 15.2964 7.54821 15.5453 7.09595 15.9973C6.16264 16.9308 6.16264 18.4498 7.09595 19.3832L11.4433 23.7305C11.8954 24.1825 12.4967 24.4314 13.1362 24.4314C13.7757 24.4314 14.3769 24.1825 14.8291 23.7303L23.9045 14.6548C24.8378 13.7211 24.8378 12.2024 23.9044 11.2692C23.4523 10.8171 22.851 10.5682 22.2115 10.5682C21.572 10.5682 20.9708 10.8171 20.5186 11.2692L13.1361 18.6517L10.4816 15.9973ZM21.5598 12.3104C21.7338 12.1365 21.9653 12.0407 22.2115 12.0407C22.4579 12.0407 22.6892 12.1365 22.8633 12.3104C23.2226 12.6697 23.2226 13.2544 22.8632 13.6138L13.7879 22.6892C13.6139 22.8631 13.3824 22.9589 13.1362 22.9589C12.8899 22.9589 12.6584 22.8631 12.4844 22.6892L8.13713 18.3421C7.77776 17.9827 7.77776 17.3979 8.13699 17.0387C8.31103 16.8647 8.54257 16.7688 8.78886 16.7688C9.03516 16.7688 9.26656 16.8646 9.44053 17.0386L12.6155 20.2136C12.7536 20.3516 12.9408 20.4292 13.1361 20.4292C13.3314 20.4292 13.5186 20.3517 13.6566 20.2136L21.5598 12.3104Z" fill="#99E39E"/>
</svg>
