<svg width="35" height="35" viewBox="0 0 35 35" fill="none" xmlns="http://www.w3.org/2000/svg">
<g clip-path="url(#clip0_23_7480)">
<path d="M8.58684 32.9795H11.621C13.3799 32.9795 13.3825 30.2391 11.621 30.2391H8.58684C6.82802 30.2391 6.82543 32.9795 8.58684 32.9795ZM8.58684 31.2645H11.621C12.0667 31.2645 12.0667 31.9541 11.621 31.9541H8.58684C8.14121 31.9541 8.14121 31.2645 8.58684 31.2645Z" fill="#99E39E"/>
<path d="M12.3523 17.6224L9.0123 20.9624L7.85559 19.8056C7.38671 19.3371 6.66176 20.0619 7.1305 20.5307L8.64979 22.05C8.89151 22.2502 9.13323 22.2502 9.37488 22.05L13.0774 18.3475C13.5461 17.8787 12.8212 17.1538 12.3523 17.6224Z" fill="#99E39E"/>
<path d="M34.6192 22.6814C34.4123 22.2862 34.2623 21.8534 34.1604 21.419C33.6604 19.3276 32.9008 17.3014 31.903 15.3967L30.2345 12.2121C29.2901 10.4092 26.5027 10.7089 25.9765 12.6863C24.7283 12.2373 23.3193 12.9754 22.978 14.2572C21.9461 13.8859 20.7545 14.3233 20.2075 15.2723V4.01427V2.00313C20.2074 0.898652 19.3088 0 18.2042 0H6.26043C5.59755 0 5.59755 1.02539 6.26043 1.02539H18.2042C18.7433 1.02539 19.182 1.46398 19.182 2.00313V3.50157H1.02595V2.00313C1.02595 1.46398 1.46454 1.02539 2.00369 1.02539H3.3894C4.05229 1.02539 4.05229 0 3.3894 0H2.00369C0.899209 0 0.000556946 0.898652 0.000556946 2.00313V4.01427V28.7252V32.9969C0.000556946 34.1013 0.899209 35 2.00369 35H18.2042C19.3087 35 20.2074 34.1013 20.2074 32.9969V28.7252V26.6716L22.0395 27.5777C22.4922 27.8017 22.8643 28.1745 23.0873 28.6277C23.9012 30.2817 25.9872 30.9674 27.6258 30.1089L30.6805 28.5086C31.2677 28.201 30.7918 27.2928 30.2046 27.6003L27.15 29.2006C26.0153 29.7953 24.5729 29.3243 24.0073 28.175C23.6853 27.5206 23.1479 26.9821 22.4941 26.6586L14.7194 22.813C13.2591 22.1037 14.3151 19.8129 15.7981 20.5046L18.6211 21.9907C19.0566 22.2199 19.5425 21.7351 19.3141 21.2991L14.41 11.9386C13.6048 10.4247 15.7613 9.02727 16.5839 10.5976L20.0502 17.214L20.9556 18.9422C21.2545 19.513 22.1707 19.0521 21.8639 18.4664L20.9824 16.7839C20.6255 15.5943 22.094 14.6353 23.0392 15.4645L24.0201 17.3368C24.319 17.9075 25.2352 17.4466 24.9284 16.8609L23.9311 14.9572C23.8377 13.8636 25.177 13.1597 26.0237 13.8811L27.0109 15.7657C27.3098 16.3364 28.226 15.8755 27.9192 15.2898L26.9318 13.405C26.7974 12.0628 28.6865 11.4669 29.3261 12.6878L30.9946 15.8724C31.9531 17.7021 32.6827 19.6484 33.1631 21.6571C33.2796 22.1782 33.463 22.684 33.7109 23.1571C34.3017 24.2846 33.8648 25.6825 32.7374 26.2732C32.1502 26.581 32.6262 27.4892 33.2132 27.1815C34.8416 26.3285 35.4724 24.3097 34.6192 22.6814ZM19.182 32.9969C19.182 33.536 18.7433 33.9746 18.2042 33.9746H2.00369C1.46454 33.9746 1.02595 33.536 1.02595 32.9969V29.2379H19.182V32.9969ZM13.1831 20.6716C12.8351 21.4032 12.9027 22.2794 13.3562 22.9504C12.5083 23.8376 11.3451 24.3404 10.1039 24.3404C7.6203 24.3404 5.59974 22.3198 5.59974 19.8362C5.59974 17.3525 7.6203 15.332 10.1039 15.332C12.4605 15.332 14.3989 17.1514 14.5911 19.4592C13.9839 19.6444 13.4561 20.0977 13.1831 20.6716ZM16.9057 9.40379C16.6822 9.22229 16.4242 9.0827 16.1411 8.99425C14.4988 8.48107 12.8449 9.98703 13.2064 11.6688H3.47308C3.37881 11.6688 3.30218 11.5922 3.30218 11.4979V7.83398C3.30218 7.73972 3.37881 7.66309 3.47308 7.66309H16.7348C16.8291 7.66309 16.9057 7.73972 16.9057 7.83398V9.40379ZM19.182 13.3473L17.9311 10.9597V7.83398C17.9311 7.17438 17.3944 6.6377 16.7348 6.6377H3.47308C2.81348 6.6377 2.27679 7.17438 2.27679 7.83398V11.498C2.27679 12.1576 2.81348 12.6943 3.47308 12.6943H13.6482L17.6416 20.3164L16.2658 19.5921C16.2597 19.5889 16.2535 19.5858 16.2473 19.5828C16.0435 19.4859 15.8305 19.4206 15.6137 19.3865C15.3839 16.5472 13.0014 14.3066 10.104 14.3066C7.05497 14.3066 4.57441 16.7871 4.57441 19.8362C4.57441 22.8852 7.05497 25.3658 10.104 25.3658C11.6332 25.3658 13.0671 24.7457 14.1088 23.6493C15.7353 24.5866 17.4991 25.3319 19.182 26.1643V28.2124H1.02595V4.52696H19.182V13.3473Z" fill="#99E39E"/>
</g>
<defs>
<clipPath id="clip0_23_7480">
<rect width="35" height="35" fill="white"/>
</clipPath>
</defs>
</svg>
