<svg width="33" height="35" viewBox="0 0 33 35" fill="none" xmlns="http://www.w3.org/2000/svg">
<path d="M4.85274 10.9763C4.85274 10.9762 4.85274 10.9761 4.85274 10.976L4.83695 10.8202C4.75471 10.0051 4.05157 9.38657 3.22982 9.41357L1.52945 9.4684C1.09769 9.48234 0.686851 9.67675 0.402408 10.0018C0.117896 10.3269 -0.0203947 10.7598 0.0230818 11.1896L0.0622517 11.5772C0.10566 12.007 0.327691 12.4035 0.67147 12.6652C0.945113 12.8734 1.28055 12.9845 1.62078 12.9845C1.708 12.9845 1.79564 12.9771 1.88246 12.9623L3.55938 12.6758C4.36698 12.5379 4.93511 11.7914 4.85274 10.9763V10.9763ZM3.38677 11.6651L1.70985 11.9516C1.56083 11.977 1.41276 11.9407 1.29245 11.8491C1.1722 11.7577 1.09762 11.6245 1.08252 11.4741L1.04335 11.0865C1.0281 10.9361 1.07459 10.7907 1.17405 10.6771C1.27358 10.5634 1.41153 10.4981 1.56253 10.4932L3.26291 10.4384C3.26879 10.4382 3.27453 10.4381 3.28034 10.4381C3.55514 10.4381 3.78907 10.6481 3.81689 10.9234L3.83268 11.0792C3.86098 11.3602 3.66506 11.6175 3.38677 11.6651V11.6651Z" fill="#99E39E"/>
<path d="M1.91178 7.55464L3.50721 8.14499C3.6844 8.21055 3.86665 8.24172 4.0465 8.24172C4.64642 8.24172 5.21845 7.89452 5.47713 7.31969L5.54145 7.17668C5.87771 6.42958 5.57522 5.54152 4.85294 5.15495L3.353 4.35228C2.9721 4.14843 2.51922 4.11151 2.11029 4.25063C1.70137 4.38987 1.36511 4.69565 1.18771 5.08967L1.02789 5.445C0.850564 5.83896 0.844617 6.29334 1.01155 6.69181C1.17848 7.09027 1.50661 7.40473 1.91178 7.55464V7.55464ZM1.96298 5.86582L2.1228 5.51056C2.1848 5.37275 2.2978 5.27 2.44081 5.22133C2.49823 5.20178 2.55702 5.19207 2.6156 5.19207C2.70283 5.19207 2.78944 5.21367 2.86915 5.25633L4.36902 6.05907C4.61805 6.19231 4.7223 6.49842 4.60643 6.75593L4.54211 6.89894C4.42617 7.15651 4.12771 7.28134 3.86303 7.18338L2.26759 6.59303C2.12595 6.5406 2.01568 6.43498 1.9573 6.2956C1.89892 6.15628 1.90097 6.00363 1.96298 5.86582V5.86582Z" fill="#99E39E"/>
<path d="M5.61283 4.10103C5.92004 4.47113 6.36752 4.66479 6.81931 4.66479C7.13704 4.66479 7.45697 4.56888 7.73143 4.37119L7.85865 4.27952C8.52337 3.80066 8.70548 2.88034 8.27318 2.18437L7.37555 0.739256C7.14764 0.372303 6.77385 0.113699 6.35009 0.0298906C5.9266 -0.0539863 5.48227 0.0428106 5.13179 0.29533L4.81563 0.523104C4.46508 0.775623 4.23272 1.16623 4.17811 1.59477C4.12342 2.02325 4.25036 2.45966 4.52619 2.79202L5.61283 4.10103ZM5.19523 1.72445C5.21437 1.57454 5.29243 1.44336 5.415 1.35504L5.73116 1.12726C5.82434 1.06013 5.93282 1.02527 6.04459 1.02527C6.07993 1.02527 6.11555 1.02876 6.15116 1.0358C6.29937 1.06513 6.42487 1.15194 6.50458 1.28032L7.40221 2.72544C7.55123 2.96531 7.48848 3.28257 7.25934 3.44759L7.13212 3.53926C6.90291 3.70428 6.58231 3.6634 6.40184 3.44615L5.3152 2.13707C5.21874 2.02086 5.17615 1.87429 5.19523 1.72445Z" fill="#99E39E"/>
<path d="M32.9846 20.6685C32.9846 20.6683 32.9846 20.6683 32.9846 20.6681C32.9846 20.0525 32.7448 19.4738 32.3094 19.0384C31.9165 18.6454 31.4066 18.4125 30.8585 18.3707V14.9071C30.8585 12.9438 29.5857 11.2375 27.7606 10.6518C27.9656 9.92195 28.0736 9.15653 28.0736 8.37238C28.0736 3.7558 24.3178 0 19.7012 0C15.163 0 11.4568 3.63022 11.333 8.13955C10.3192 8.70618 9.42136 9.48404 8.70878 10.4368H8.36651C7.37653 10.4368 6.44534 10.8224 5.74397 11.5228C5.04479 12.2228 4.65945 13.1526 4.65849 14.1412C4.65842 14.1425 4.65808 14.1437 4.65808 14.1449V31.2915C4.65808 32.2823 5.04383 33.2136 5.74411 33.914C6.44452 34.6143 7.37584 35 8.36665 35H26.3883C27.1911 35 27.9785 34.7847 28.6651 34.3772C28.9086 34.2327 28.9889 33.9182 28.8444 33.6747C28.7 33.4312 28.3853 33.351 28.1419 33.4954C27.6136 33.8089 27.0071 33.9746 26.3884 33.9746H14.6415V24.8231C15.4828 24.5967 16.1041 23.8275 16.1041 22.9157C16.1041 21.8265 15.218 20.9404 14.1288 20.9404C13.0396 20.9404 12.1535 21.8265 12.1535 22.9157C12.1535 23.8275 12.7747 24.5967 13.6161 24.8231V33.9746H12.0109V29.4704C12.0109 29.3344 11.9569 29.204 11.8608 29.1079L10.38 27.6272C10.548 27.3369 10.6447 27.0004 10.6447 26.6416C10.6447 25.5524 9.75851 24.6663 8.66934 24.6663C7.5801 24.6663 6.69403 25.5524 6.69403 26.6416C6.69403 27.7307 7.58017 28.6169 8.66934 28.6169C9.02816 28.6169 9.36456 28.5202 9.65488 28.3523L10.9855 29.6829V33.9746H8.36671C7.64983 33.9746 6.97594 33.6956 6.46933 33.189C5.96265 32.6823 5.68361 32.0084 5.68361 31.2915V16.7046C6.20423 17.2512 6.89241 17.6415 7.67738 17.7882C7.9003 17.8312 8.13217 17.853 8.36665 17.853H26.3882C28.2878 17.853 29.8332 19.3984 29.8332 21.2979C29.8332 21.3011 29.8336 21.3041 29.8337 21.3071V21.9484H27.743C27.7429 21.9484 27.743 21.9484 27.7429 21.9484C26.6518 21.9484 25.6259 22.3733 24.8543 23.1448C24.0826 23.9164 23.6576 24.9423 23.6576 26.0334C23.6576 28.2858 25.4902 30.1183 27.7426 30.1183H29.8337V30.5299C29.8337 31.127 29.6789 31.7144 29.3861 32.2285C29.2459 32.4745 29.3319 32.7876 29.5779 32.9278C29.658 32.9733 29.7452 32.995 29.8311 32.995C30.0094 32.995 30.1827 32.9019 30.2771 32.7359C30.6578 32.0675 30.8591 31.3046 30.8591 30.5299V30.1106C32.0465 30.0185 32.9848 29.0236 32.9848 27.813L32.9846 20.6685ZM13.1788 22.9157C13.1788 22.3919 13.6049 21.9658 14.1287 21.9658C14.6526 21.9658 15.0786 22.3919 15.0786 22.9157C15.0786 23.4395 14.6526 23.8656 14.1287 23.8656C13.6049 23.8656 13.1788 23.4395 13.1788 22.9157ZM7.71928 26.6415C7.71928 26.1177 8.14544 25.6916 8.6692 25.6916C9.19297 25.6916 9.61913 26.1177 9.61913 26.6415C9.61913 27.1653 9.19304 27.5914 8.6692 27.5914C8.14537 27.5914 7.71928 27.1653 7.71928 26.6415ZM31.5844 19.7634C31.8261 20.0052 31.9592 20.3265 31.9592 20.6681C31.9592 21.3131 31.4796 21.8467 30.8589 21.9343V21.298C30.8589 21.2949 30.8585 21.2919 30.8584 21.2888V19.4024C31.1322 19.4406 31.3854 19.5645 31.5844 19.7634ZM19.7012 1.02539C23.7524 1.02539 27.0482 4.3212 27.0482 8.37231C27.0482 10.875 25.7972 13.1616 23.7362 14.5131C23.6951 14.1444 23.6301 13.783 23.5425 13.4302C25.1211 12.2316 26.0533 10.3676 26.0533 8.37259C26.0533 7.89845 26.0005 7.4254 25.8963 6.96644C25.8336 6.69026 25.5587 6.51731 25.2828 6.57993C25.0067 6.64262 24.8337 6.91728 24.8963 7.19339C24.9836 7.57798 25.0279 7.97474 25.0279 8.37259C25.0279 9.92141 24.3577 11.3762 23.2075 12.3813C22.9785 11.8011 22.6861 11.2525 22.3394 10.7438C22.6214 10.3986 22.7747 9.97042 22.7747 9.51829C22.7747 8.77071 22.3502 8.12068 21.7297 7.79563C21.8805 7.54585 21.9675 7.25334 21.9675 6.94094C21.9675 6.20532 21.486 5.58031 20.8216 5.36382V4.49224C20.8216 4.20909 20.5921 3.97954 20.3089 3.97954C20.0257 3.97954 19.7962 4.20909 19.7962 4.49224V5.2824H19.3123V4.49224C19.3123 4.20909 19.0829 3.97954 18.7997 3.97954C18.5164 3.97954 18.287 4.20909 18.287 4.49224V5.2824H18.2127H17.3225C17.0393 5.2824 16.8098 5.51195 16.8098 5.7951C16.8098 6.07824 17.0393 6.30779 17.3225 6.30779H17.7V7.39108C16.9738 7.18498 16.2078 7.07451 15.4165 7.07451C15.1165 7.07451 14.8187 7.0916 14.5237 7.12332C15.0884 4.75754 17.2062 3.04609 19.7013 3.04609C21.5107 3.04609 23.1808 3.95274 24.1688 5.47148C24.3232 5.7089 24.6408 5.77603 24.8782 5.62167C25.1155 5.46725 25.1828 5.14965 25.0284 4.91237C23.8505 3.10174 21.859 2.02077 19.7013 2.02077C16.5773 2.02077 13.9487 4.27082 13.4397 7.3122C13.0824 7.39922 12.7323 7.50982 12.3912 7.64217C12.7589 3.93258 15.897 1.02539 19.7012 1.02539ZM20.309 6.30779C20.6581 6.30779 20.9422 6.59189 20.9422 6.94101C20.9422 7.29012 20.6581 7.57422 20.309 7.57422H18.7254V6.30779H20.309ZM20.8308 8.59988C21.3373 8.59988 21.7494 9.01189 21.7494 9.51836C21.7494 9.64797 21.722 9.77307 21.6713 9.88805C21.2421 9.40557 20.7582 8.97285 20.2292 8.59988H20.8308ZM5.68388 14.1449C5.68388 13.4286 5.96293 12.7547 6.46906 12.2479C6.89856 11.8189 7.44769 11.5539 8.04078 11.4825C7.38671 12.6954 7.04458 14.0485 7.04458 15.4466C7.04458 15.8061 7.06816 16.164 7.11348 16.5178C6.25352 16.064 5.68388 15.1611 5.68388 14.1449ZM8.19937 16.8218C8.11392 16.3717 8.06997 15.9106 8.06997 15.4464C8.06997 13.9327 8.52661 12.4793 9.39046 11.2434C10.7659 9.275 13.0186 8.09983 15.4165 8.09983C19.4675 8.09983 22.7631 11.3955 22.7631 15.4464C22.7631 15.9129 22.719 16.3758 22.6328 16.8275H21.6158C21.7161 16.3763 21.7678 15.9143 21.7678 15.4464C21.7678 11.9443 18.9187 9.09515 15.4166 9.09515C11.9146 9.09515 9.06535 11.9443 9.06535 15.4464C9.06535 15.9142 9.1171 16.3762 9.21738 16.8275H8.36658C8.31045 16.8276 8.25481 16.8252 8.19937 16.8218V16.8218ZM14.4407 16.8276V15.6741H16.5456C17.052 15.6741 17.4641 16.0861 17.4641 16.5925C17.4641 16.6725 17.4534 16.7515 17.4332 16.8276H14.4407ZM16.0239 13.3822C16.373 13.3822 16.6571 13.6663 16.6571 14.0154C16.6571 14.3645 16.3731 14.6486 16.0239 14.6486H14.4404V13.3822H16.0239ZM17.4448 14.8699C17.5956 14.6202 17.6825 14.3278 17.6825 14.0154C17.6825 13.2797 17.2009 12.6548 16.5365 12.4383V11.5666C16.5365 11.2835 16.3071 11.0539 16.0239 11.0539C15.7406 11.0539 15.5112 11.2835 15.5112 11.5666V12.3568H15.0273V11.5666C15.0273 11.2835 14.7978 11.0539 14.5146 11.0539C14.2314 11.0539 14.0019 11.2835 14.0019 11.5666V12.3568H13.9277H13.0376C12.7544 12.3568 12.5249 12.5863 12.5249 12.8695C12.5249 13.1526 12.7544 13.3822 13.0376 13.3822H13.415V15.1613C13.415 15.1635 13.4153 15.1657 13.4153 15.1679V16.8276H10.2728C10.1525 16.3794 10.0907 15.9165 10.0907 15.4465C10.0907 12.5098 12.4798 10.1206 15.4165 10.1206C18.3532 10.1206 20.7424 12.5098 20.7424 15.4465C20.7424 15.9166 20.6806 16.3795 20.5603 16.8276H18.4743C18.4838 16.7499 18.4894 16.6715 18.4894 16.5925C18.4895 15.845 18.0651 15.1951 17.4448 14.8699V14.8699ZM29.8331 18.452C29.0124 17.4604 27.7728 16.8276 26.3881 16.8276H23.6739C23.7366 16.4505 23.7742 16.0677 23.785 15.6821C25.4485 14.7527 26.7109 13.3159 27.4219 11.6205C28.841 12.0641 29.8331 13.3852 29.8331 14.9071V18.452ZM31.9593 27.813C31.9593 28.5188 31.3852 29.093 30.6793 29.093H27.7425C26.0554 29.093 24.6829 27.7205 24.6829 26.0334C24.6829 25.2161 25.0011 24.4478 25.5791 23.8699C26.1571 23.292 26.9255 22.9738 27.7428 22.9738H30.6796C31.1527 22.9738 31.5929 22.8305 31.9592 22.585V27.813H31.9593Z" fill="#99E39E"/>
<path d="M27.7426 24.058C26.6534 24.058 25.7673 24.9441 25.7673 26.0333C25.7673 27.1225 26.6535 28.0086 27.7426 28.0086C28.8318 28.0086 29.718 27.1225 29.718 26.0333C29.718 24.9441 28.8318 24.058 27.7426 24.058ZM27.7426 26.9832C27.2189 26.9832 26.7927 26.5571 26.7927 26.0333C26.7927 25.5095 27.2189 25.0834 27.7426 25.0834C28.2664 25.0834 28.6926 25.5095 28.6926 26.0333C28.6926 26.5571 28.2664 26.9832 27.7426 26.9832Z" fill="#99E39E"/>
</svg>
