<svg width="230" height="68" viewBox="0 0 230 68" fill="none" xmlns="http://www.w3.org/2000/svg">
    <path d="M29.5 0 0 17.126.126 51 29.5 68 59 50.874V17z" fill="#fff" />
    <path
        d="M50.427 26.822v-4.91L29.5 9.821 8.573 21.912v24.177L29.5 58.178l28.996-16.622v-9.949L29.5 48.23l-12.355-7.052V26.822L29.5 19.644l8.068 4.786-12.354 7.052v4.91l4.286 2.52z"
        fill="#2CDD9B" />
    <path
        d="M183.67 32V18h6.06q1.88 0 3.24.62 1.36.6 2.1 1.74t.74 2.72q0 1.56-.74 2.7-.74 1.12-2.1 1.72t-3.24.6h-4.26l1.44-1.42V32zm8.9 0-3.5-5.08h3.46l3.54 5.08zm-5.66-4.96-1.44-1.52h4.08q1.5 0 2.24-.64.74-.66.74-1.8 0-1.16-.74-1.8t-2.24-.64h-4.08l1.44-1.54zm-13.115 5.2q-1.66 0-3.08-.54a7.4 7.4 0 0 1-2.44-1.52 7.1 7.1 0 0 1-1.6-2.3q-.56-1.32-.56-2.88t.56-2.88a7 7 0 0 1 1.62-2.3 7.4 7.4 0 0 1 2.44-1.52q1.4-.54 3.04-.54 1.66 0 3.04.54a7.2 7.2 0 0 1 2.42 1.52 7 7 0 0 1 1.62 2.3q.58 1.3.58 2.88 0 1.56-.58 2.9a7 7 0 0 1-1.62 2.3 7.3 7.3 0 0 1-2.42 1.5q-1.38.54-3.02.54m-.02-2.76q.94 0 1.72-.32.8-.32 1.4-.92t.92-1.42q.34-.82.34-1.82t-.34-1.82a4.1 4.1 0 0 0-.92-1.42 3.9 3.9 0 0 0-1.38-.92 4.6 4.6 0 0 0-1.74-.32q-.939 0-1.74.32-.78.32-1.38.92t-.94 1.42a5 5 0 0 0-.32 1.82q0 .98.32 1.82.34.82.92 1.42.6.6 1.4.92.801.32 1.74.32M156.923 32l-6.04-14h3.5l5.28 12.4h-2.06l5.36-12.4h3.22l-6.06 14zm-20.391 0 6.24-14h3.2l6.26 14h-3.4l-5.12-12.36h1.28L139.852 32zm3.12-3 .86-2.46h7.2l.88 2.46zm-11.518-5.36h6.74v2.52h-6.74zm.24 5.76h7.62V32h-10.84V18h10.58v2.6h-7.36zM108.83 32V18h6.36q2.28 0 4.02.88 1.74.86 2.72 2.42t.98 3.7q0 2.12-.98 3.7-.98 1.56-2.72 2.44-1.74.86-4.02.86zm3.24-2.66h2.96q1.4 0 2.42-.52a3.8 3.8 0 0 0 1.6-1.52q.58-.98.58-2.3 0-1.34-.58-2.3a3.7 3.7 0 0 0-1.6-1.5q-1.02-.54-2.42-.54h-2.96zM92.878 32V18h2.68l8.26 10.08h-1.3V18h3.2v14h-2.66l-8.28-10.08h1.3V32zM82.64 23.64h6.74v2.52h-6.74zm.24 5.76h7.62V32H79.66V18h10.58v2.6h-7.36z"
        fill="#FFF" />
    <path
        d="M221.826 52v-8.4h.984l5.556 6.9h-.516v-6.9h1.2V52h-.984l-5.556-6.9h.516V52zm-6.766.096q-.96 0-1.788-.324a4.3 4.3 0 0 1-1.416-.9 4.3 4.3 0 0 1-.936-1.368 4.3 4.3 0 0 1-.336-1.704q0-.924.336-1.704t.936-1.356q.6-.588 1.416-.912a4.8 4.8 0 0 1 1.788-.324q.96 0 1.764.324a4.1 4.1 0 0 1 1.416.9q.612.576.936 1.356.336.78.336 1.716t-.336 1.716q-.324.78-.936 1.368-.6.576-1.416.9a4.8 4.8 0 0 1-1.764.312m0-1.068q.696 0 1.284-.24a3.03 3.03 0 0 0 1.716-1.704q.252-.588.252-1.284t-.252-1.284a3 3 0 0 0-.684-1.02 2.95 2.95 0 0 0-1.032-.684q-.588-.24-1.284-.24-.708 0-1.308.24-.588.24-1.032.684a3.1 3.1 0 0 0-.696 1.02q-.24.588-.24 1.284t.24 1.284q.252.588.696 1.032.444.432 1.032.672.6.24 1.308.24m-7.987.972v-8.4h1.2V52zm-5.855 0v-7.356h-2.88V43.6h6.948v1.044h-2.88V52zm-11.787 0 3.804-8.4h1.188l3.816 8.4h-1.26l-3.396-7.728h.48L190.667 52zm1.62-2.1.324-.96h4.728l.348.96zM180.426 52v-8.4h3.54q1.344 0 2.364.528 1.032.528 1.596 1.476.576.948.576 2.196t-.576 2.196a3.85 3.85 0 0 1-1.596 1.476q-1.02.528-2.364.528zm1.2-1.044h2.268q1.044 0 1.8-.396a2.9 2.9 0 0 0 1.188-1.104q.42-.72.42-1.656 0-.948-.42-1.656a2.9 2.9 0 0 0-1.188-1.104q-.756-.396-1.8-.396h-2.268zM170.208 52v-8.4h.984l5.556 6.9h-.516v-6.9h1.2V52h-.984l-5.556-6.9h.516V52zm-6.492.096q-1.656 0-2.604-.948t-.948-2.772V43.6h1.2v4.728q0 1.404.612 2.052.624.648 1.752.648 1.14 0 1.752-.648.624-.648.624-2.052V43.6h1.164v4.776q0 1.824-.948 2.772-.936.948-2.604.948m-10.246 0q-.96 0-1.788-.324a4.3 4.3 0 0 1-1.416-.9 4.3 4.3 0 0 1-.936-1.368 4.3 4.3 0 0 1-.336-1.704q0-.924.336-1.704t.936-1.356q.6-.588 1.416-.912a4.8 4.8 0 0 1 1.788-.324q.96 0 1.764.324a4.1 4.1 0 0 1 1.416.9q.612.576.936 1.356.336.78.336 1.716t-.336 1.716q-.324.78-.936 1.368-.6.576-1.416.9a4.8 4.8 0 0 1-1.764.312m0-1.068q.696 0 1.284-.24a3.03 3.03 0 0 0 1.716-1.704q.252-.588.252-1.284t-.252-1.284a3 3 0 0 0-.684-1.02 2.95 2.95 0 0 0-1.032-.684q-.588-.24-1.284-.24-.708 0-1.308.24-.588.24-1.032.684a3.1 3.1 0 0 0-.696 1.02q-.24.588-.24 1.284t.24 1.284q.252.588.696 1.032.444.432 1.032.672.6.24 1.308.24m-10.716-3.456h4.332v1.032h-4.332zm.12 4.428h-1.2v-8.4h5.928v1.044h-4.728zm-11.124 0v-3.216l.276.744-3.612-5.928h1.284l3.036 5.004h-.696l3.048-5.004h1.188l-3.6 5.928.264-.744V52zm-7.789 0v-7.356h-2.88V43.6h6.948v1.044h-2.88V52zm-5.863 0v-8.4h1.2V52zm-9.199 0v-8.4h3.276q1.104 0 1.884.348t1.2 1.008.42 1.572-.42 1.572q-.42.648-1.2.996t-1.884.348h-2.616l.54-.552V52zm5.616 0-2.136-3.048h1.284l2.16 3.048zm-4.416-2.988-.54-.588h2.58q1.152 0 1.74-.492.6-.504.6-1.404t-.6-1.392q-.588-.492-1.74-.492h-2.58l.54-.6zM98.358 52l3.804-8.4h1.188l3.816 8.4h-1.26l-3.396-7.728h.48L99.594 52zm1.62-2.1.324-.96h4.728l.348.96zm-4.542-6.3h1.2V52h-1.2zM90.612 52h-1.2v-8.4h1.2zm4.932-3.744h-5.052v-1.044h5.052zm-11.528 3.84q-.96 0-1.776-.312a4.4 4.4 0 0 1-1.404-.9 4.4 4.4 0 0 1-.924-1.368 4.3 4.3 0 0 1-.336-1.716q0-.936.336-1.716t.936-1.356q.6-.588 1.404-.9a4.8 4.8 0 0 1 1.776-.324 4.7 4.7 0 0 1 1.788.336q.828.324 1.404.972l-.78.756a3.05 3.05 0 0 0-1.08-.744 3.3 3.3 0 0 0-1.284-.252q-.708 0-1.32.24-.6.24-1.044.672a3.1 3.1 0 0 0-.696 1.032q-.24.588-.24 1.284t.24 1.296a3.12 3.12 0 0 0 1.74 1.692q.612.24 1.32.24.684 0 1.284-.24.6-.252 1.08-.768l.78.756q-.576.648-1.404.984a4.7 4.7 0 0 1-1.8.336"
        fill="#B3B3B3" />
</svg>
  