<svg width="195" height="55" viewBox="0 0 195 55" fill="none" xmlns="http://www.w3.org/2000/svg">
<path d="M65.086 42.504C62.174 42.504 59.654 41.874 57.526 40.614C55.426 39.326 53.802 37.548 52.654 35.28C51.506 32.984 50.932 30.338 50.932 27.342C50.932 24.318 51.506 21.672 52.654 19.404C53.802 17.108 55.426 15.316 57.526 14.028C59.654 12.74 62.174 12.096 65.086 12.096C68.53 12.096 71.344 12.936 73.528 14.616C75.712 16.296 77.098 18.648 77.686 21.672H72.73C72.338 19.964 71.498 18.606 70.21 17.598C68.922 16.59 67.2 16.086 65.044 16.086C62.104 16.086 59.78 17.094 58.072 19.11C56.364 21.098 55.51 23.842 55.51 27.342C55.51 30.814 56.364 33.544 58.072 35.532C59.78 37.52 62.104 38.514 65.044 38.514C67.2 38.514 68.922 38.038 70.21 37.086C71.498 36.134 72.338 34.832 72.73 33.18H77.686C77.098 36.092 75.712 38.374 73.528 40.026C71.344 41.678 68.53 42.504 65.086 42.504ZM82.4117 42V21.168H86.4017L86.7797 25.116C87.5077 23.744 88.5157 22.666 89.8037 21.882C91.1197 21.07 92.7017 20.664 94.5497 20.664V25.326H93.3317C92.0997 25.326 90.9937 25.536 90.0137 25.956C89.0617 26.348 88.2917 27.034 87.7037 28.014C87.1437 28.966 86.8637 30.296 86.8637 32.004V42H82.4117ZM100.803 51.24L105.801 40.278H104.583L96.3507 21.168H101.181L107.565 36.582L114.243 21.168H118.947L105.507 51.24H100.803ZM122.607 51.24V21.168H126.597L127.059 24.402C127.731 23.422 128.655 22.554 129.831 21.798C131.007 21.042 132.519 20.664 134.367 20.664C136.383 20.664 138.161 21.14 139.701 22.092C141.241 23.044 142.445 24.346 143.313 25.998C144.209 27.65 144.657 29.526 144.657 31.626C144.657 33.726 144.209 35.602 143.313 37.254C142.445 38.878 141.241 40.166 139.701 41.118C138.161 42.042 136.369 42.504 134.325 42.504C132.701 42.504 131.259 42.182 129.999 41.538C128.767 40.894 127.787 39.984 127.059 38.808V51.24H122.607ZM133.569 38.64C135.473 38.64 137.041 37.996 138.273 36.708C139.505 35.392 140.121 33.684 140.121 31.584C140.121 30.212 139.841 28.994 139.281 27.93C138.721 26.866 137.951 26.04 136.971 25.452C135.991 24.836 134.857 24.528 133.569 24.528C131.665 24.528 130.097 25.186 128.865 26.502C127.661 27.818 127.059 29.512 127.059 31.584C127.059 33.684 127.661 35.392 128.865 36.708C130.097 37.996 131.665 38.64 133.569 38.64Z" fill="white"/>
<path d="M157.998 35.616C156.906 35.616 155.898 35.49 154.974 35.238L153.168 37.002C153.476 37.198 153.854 37.366 154.302 37.506C154.75 37.646 155.38 37.772 156.192 37.884C157.004 37.996 158.11 38.108 159.51 38.22C162.282 38.472 164.284 39.144 165.516 40.236C166.748 41.3 167.364 42.728 167.364 44.52C167.364 45.752 167.028 46.914 166.356 48.006C165.712 49.126 164.69 50.022 163.29 50.694C161.918 51.394 160.154 51.744 157.998 51.744C155.086 51.744 152.72 51.184 150.9 50.064C149.108 48.972 148.212 47.306 148.212 45.066C148.212 44.198 148.436 43.33 148.884 42.462C149.36 41.622 150.102 40.824 151.11 40.068C150.522 39.816 150.004 39.55 149.556 39.27C149.136 38.962 148.758 38.654 148.422 38.346V37.338L152.034 33.642C150.41 32.242 149.598 30.408 149.598 28.14C149.598 26.768 149.92 25.522 150.564 24.402C151.236 23.254 152.202 22.344 153.462 21.672C154.722 21 156.234 20.664 157.998 20.664C159.174 20.664 160.266 20.832 161.274 21.168H169.044V24.108L165.348 24.318C166.02 25.466 166.356 26.74 166.356 28.14C166.356 29.54 166.02 30.8 165.348 31.92C164.704 33.04 163.752 33.936 162.492 34.608C161.26 35.28 159.762 35.616 157.998 35.616ZM157.998 32.13C159.286 32.13 160.322 31.794 161.106 31.122C161.918 30.422 162.324 29.442 162.324 28.182C162.324 26.894 161.918 25.914 161.106 25.242C160.322 24.57 159.286 24.234 157.998 24.234C156.682 24.234 155.618 24.57 154.806 25.242C154.022 25.914 153.63 26.894 153.63 28.182C153.63 29.442 154.022 30.422 154.806 31.122C155.618 31.794 156.682 32.13 157.998 32.13ZM152.412 44.646C152.412 45.85 152.944 46.746 154.008 47.334C155.072 47.95 156.402 48.258 157.998 48.258C159.538 48.258 160.784 47.922 161.736 47.25C162.688 46.606 163.164 45.738 163.164 44.646C163.164 43.834 162.842 43.134 162.198 42.546C161.554 41.986 160.336 41.636 158.544 41.496C157.2 41.412 156.01 41.286 154.974 41.118C153.994 41.65 153.322 42.224 152.958 42.84C152.594 43.456 152.412 44.058 152.412 44.646ZM181.939 42.504C179.951 42.504 178.159 42.056 176.563 41.16C174.995 40.236 173.749 38.962 172.825 37.338C171.901 35.686 171.439 33.768 171.439 31.584C171.439 29.4 171.901 27.496 172.825 25.872C173.777 24.22 175.051 22.946 176.647 22.05C178.243 21.126 180.021 20.664 181.981 20.664C183.969 20.664 185.747 21.126 187.315 22.05C188.911 22.946 190.171 24.22 191.095 25.872C192.047 27.496 192.523 29.4 192.523 31.584C192.523 33.768 192.047 35.686 191.095 37.338C190.171 38.962 188.911 40.236 187.315 41.16C185.719 42.056 183.927 42.504 181.939 42.504ZM181.939 38.682C183.003 38.682 183.983 38.416 184.879 37.884C185.803 37.352 186.545 36.568 187.105 35.532C187.665 34.468 187.945 33.152 187.945 31.584C187.945 30.016 187.665 28.714 187.105 27.678C186.573 26.614 185.845 25.816 184.921 25.284C184.025 24.752 183.045 24.486 181.981 24.486C180.917 24.486 179.923 24.752 178.999 25.284C178.103 25.816 177.375 26.614 176.815 27.678C176.255 28.714 175.975 30.016 175.975 31.584C175.975 33.152 176.255 34.468 176.815 35.532C177.375 36.568 178.103 37.352 178.999 37.884C179.895 38.416 180.875 38.682 181.939 38.682Z" fill="#99E39E"/>
<path d="M0 27C5.95113 27 16.9611 25.211 17.3809 8.96874C17.3754 8.63201 17.3798 8.30834 17.3933 8C17.3933 8.32849 17.3891 8.65138 17.3809 8.96874C17.4864 15.4013 21.2401 26.5957 36 26.5957C30.2471 26.8571 18.9155 30.8691 18.2344 44.6773C18.2403 45.1419 18.2288 45.5846 18.2022 46C18.2022 45.5494 18.2131 45.1086 18.2344 44.6773C18.1498 38.0594 14.5137 27 0 27Z" fill="#E0E0E0"/>
</svg>
