<svg width="40" height="40" viewBox="0 0 40 40" fill="none" xmlns="http://www.w3.org/2000/svg">
<g clip-path="url(#clip0_23_7638)">
<path d="M20 25C22.7569 25 25 22.7569 25 20C25 17.2431 22.7569 15 20 15C17.2431 15 15 17.2431 15 20C15 22.7569 17.2431 25 20 25ZM20 16.25C22.0681 16.25 23.75 17.9319 23.75 20C23.75 22.0681 22.0681 23.75 20 23.75C17.9319 23.75 16.25 22.0681 16.25 20C16.25 17.9319 17.9319 16.25 20 16.25Z" fill="#99E39E"/>
<path d="M20 22.5C21.3788 22.5 22.5 21.3788 22.5 20C22.5 18.6212 21.3788 17.5 20 17.5C18.6212 17.5 17.5 18.6212 17.5 20C17.5 21.3788 18.6212 22.5 20 22.5ZM20 18.75C20.6894 18.75 21.25 19.3106 21.25 20C21.25 20.6894 20.6894 21.25 20 21.25C19.3106 21.25 18.75 20.6894 18.75 20C18.75 19.3106 19.3106 18.75 20 18.75Z" fill="#99E39E"/>
<path d="M15.8938 27.3837L16.9862 26.8612C17.0837 26.9044 17.1819 26.9456 17.2806 26.9837L17.6825 28.125H22.3169L22.72 26.9837C22.8181 26.945 22.9163 26.9044 23.0144 26.8612L24.1069 27.3837L27.3844 24.1062L26.8619 23.0137C26.905 22.9162 26.9462 22.8181 26.9844 22.7194L28.125 22.3175V17.6831L26.9837 17.28C26.945 17.1819 26.9044 17.0838 26.8612 16.9856L27.3837 15.8931L24.1062 12.6156L23.0137 13.1381C22.9162 13.095 22.8181 13.0538 22.7194 13.0156L22.3175 11.875H17.6831L17.28 13.0163C17.1819 13.055 17.0838 13.0956 16.9856 13.1387L15.8931 12.6163L12.6156 15.8938L13.1381 16.9862C13.095 17.0837 13.0538 17.1819 13.0156 17.2806L11.875 17.6825V22.3169L13.0163 22.72C13.055 22.8181 13.0956 22.9163 13.1387 23.0144L12.6163 24.1069L15.8938 27.3837ZM13.125 21.4325V18.5669L13.995 18.26L14.0931 17.9737C14.175 17.7344 14.2756 17.4931 14.3919 17.2569L14.525 16.985L14.1262 16.1512L16.1525 14.125L16.9862 14.5238L17.2581 14.3906C17.4944 14.2744 17.7356 14.1744 17.975 14.0919L18.2613 13.9937L18.5675 13.125H21.4331L21.74 13.995L22.0263 14.0931C22.2656 14.175 22.5069 14.2756 22.7431 14.3919L23.015 14.525L23.8488 14.1262L25.875 16.1525L25.4763 16.9862L25.6094 17.2581C25.7256 17.4944 25.8256 17.7356 25.9081 17.975L26.0063 18.2613L26.875 18.5675V21.4331L26.005 21.74L25.9069 22.0263C25.825 22.2656 25.7244 22.5069 25.6081 22.7431L25.475 23.015L25.8737 23.8488L23.8475 25.875L23.0137 25.4763L22.7419 25.6094C22.5056 25.7256 22.2644 25.8256 22.025 25.9081L21.7388 26.0063L21.4325 26.875H18.5669L18.26 26.005L17.9737 25.9069C17.7344 25.825 17.4931 25.7244 17.2569 25.6081L16.985 25.475L16.1512 25.8737L14.125 23.8475L14.5238 23.0137L14.3906 22.7419C14.2744 22.5056 14.1744 22.2644 14.0919 22.025L13.9937 21.7388L13.125 21.4325Z" fill="#99E39E"/>
<path d="M8.75 29.375H2.5C1.46625 29.375 0.625 30.2162 0.625 31.25V37.5C0.625 38.5337 1.46625 39.375 2.5 39.375H8.75C9.78375 39.375 10.625 38.5337 10.625 37.5V31.25C10.625 30.2162 9.78375 29.375 8.75 29.375ZM9.375 37.5C9.375 37.8444 9.09437 38.125 8.75 38.125H2.5C2.15562 38.125 1.875 37.8444 1.875 37.5V31.25C1.875 30.9056 2.15562 30.625 2.5 30.625H8.75C9.09437 30.625 9.375 30.9056 9.375 31.25V37.5Z" fill="#99E39E"/>
<path d="M37.5 15H31.25C30.2162 15 29.375 15.8412 29.375 16.875V23.125C29.375 24.1587 30.2162 25 31.25 25H37.5C38.5337 25 39.375 24.1587 39.375 23.125V16.875C39.375 15.8412 38.5337 15 37.5 15ZM38.125 23.125C38.125 23.4694 37.8444 23.75 37.5 23.75H31.25C30.9056 23.75 30.625 23.4694 30.625 23.125V16.875C30.625 16.5306 30.9056 16.25 31.25 16.25H37.5C37.8444 16.25 38.125 16.5306 38.125 16.875V23.125Z" fill="#99E39E"/>
<path d="M6.25 10.625H12.5C13.5337 10.625 14.375 9.78375 14.375 8.75V2.5C14.375 1.46625 13.5337 0.625 12.5 0.625H6.25C5.21625 0.625 4.375 1.46625 4.375 2.5V8.75C4.375 9.78375 5.21625 10.625 6.25 10.625ZM5.625 2.5C5.625 2.15562 5.90562 1.875 6.25 1.875H12.5C12.8444 1.875 13.125 2.15562 13.125 2.5V8.75C13.125 9.09437 12.8444 9.375 12.5 9.375H6.25C5.90562 9.375 5.625 9.09437 5.625 8.75V2.5Z" fill="#99E39E"/>
<path d="M4.37498 35.3662L3.56686 34.5581L2.68311 35.4419L4.37498 37.1337L8.56686 32.9419L7.68311 32.0581L4.37498 35.3662Z" fill="#99E39E"/>
<path d="M12.3168 4.19186L11.4331 3.30811L8.12498 6.61623L7.31685 5.80811L6.43311 6.69186L8.12498 8.38373L12.3168 4.19186Z" fill="#99E39E"/>
<path d="M33.125 20.9912L32.3169 20.1831L31.4331 21.0669L33.125 22.7587L37.3169 18.5669L36.4331 17.6831L33.125 20.9912Z" fill="#99E39E"/>
<path d="M29.2231 28.1438L29.5263 29.3563L33.0788 28.4682C30.2094 32.9132 25.3244 35.625 20 35.625C17.7131 35.625 15.5094 35.1425 13.4506 34.1907L12.9263 35.325C15.1506 36.3538 17.5306 36.875 20 36.875C25.6619 36.875 30.8619 34.0375 33.9794 29.3725L34.38 32.5775L35.62 32.4225L34.9075 26.7225L29.2231 28.1438Z" fill="#99E39E"/>
<path d="M7.48312 22.645L6.2675 22.3544L5.50499 25.5456C4.75749 23.6956 4.37499 21.8362 4.37499 20C4.37499 17.6937 4.86562 15.4731 5.83312 13.3987L4.7 12.87C3.655 15.1112 3.125 17.51 3.125 20C3.125 21.9894 3.53437 23.9962 4.33437 25.9869L1.55187 24.4525L0.94812 25.5475L6.10937 28.3925L7.48312 22.645Z" fill="#99E39E"/>
<path d="M20.9719 5.72998L18.9394 4.37498H20C25.8469 4.37498 31.16 7.59873 33.865 12.7881L34.9732 12.21C32.0525 6.60623 26.315 3.12498 20 3.12498H18.9394L20.9719 1.76998L20.2788 0.72998L15.7482 3.74998L20.2782 6.76998L20.9719 5.72998Z" fill="#99E39E"/>
</g>
<defs>
<clipPath id="clip0_23_7638">
<rect width="40" height="40" fill="white"/>
</clipPath>
</defs>
</svg>
