<svg width="48" height="48" viewBox="0 0 48 48" fill="none" xmlns="http://www.w3.org/2000/svg">
<path fill-rule="evenodd" clip-rule="evenodd" d="M34.8494 19.9222C34.07 19.2806 33.0553 18.9594 31.8053 18.959C33.1049 17.7876 33.4258 16.2694 32.7687 14.4039C32.5355 13.7262 32.2023 13.1716 31.7686 12.7391C31.3346 12.3067 30.8182 12.0007 30.2177 11.8216C29.6176 11.642 28.9901 11.5478 28.3364 11.538C27.6826 11.5283 26.949 11.5857 26.1363 11.7104L25.147 7.74283L22.8242 8.32196L23.786 12.1793C23.3838 12.2796 22.773 12.443 21.9537 12.6696L20.9841 8.78076L18.661 9.35998L19.6502 13.3275C19.3209 13.4208 18.8346 13.5478 18.191 13.7082L14.9892 14.4896L15.633 17.0717L17.3073 16.6543C18.0716 16.4637 18.6081 16.7091 18.9167 17.3902L20.0433 21.9088C20.144 21.8837 20.2257 21.8691 20.2887 21.8645L20.0473 21.9247L21.6253 28.2536C21.6783 28.8088 21.4535 29.1494 20.9506 29.2747L19.2765 29.6922L19.5272 32.69L22.5441 31.9378C22.7352 31.8902 23.0122 31.8239 23.3756 31.7384C23.7389 31.6534 24.011 31.5884 24.192 31.5432L25.193 35.5579L27.5165 34.9786L26.5273 31.0111C26.9522 30.9166 27.5669 30.7688 28.3714 30.5682L29.3566 34.5198L31.6795 33.9407L30.6785 29.926C31.4928 29.6784 32.2048 29.4177 32.8142 29.1427C33.4239 28.8676 33.9899 28.5345 34.5115 28.1423C35.0331 27.7504 35.4442 27.3216 35.7447 26.8565C36.0456 26.3916 36.2531 25.8435 36.3686 25.2126C36.4833 24.5819 36.4834 23.8851 36.3677 23.1222C36.1353 21.6309 35.6289 20.5641 34.8494 19.9222ZM22.7053 15.4919L22.7055 15.4918L23.9106 20.3252C23.961 20.3126 24.1349 20.2722 24.433 20.2034C24.7311 20.1346 24.9648 20.0763 25.1346 20.0285C25.3041 19.9807 25.553 19.9073 25.881 19.8089C26.209 19.7104 26.4783 19.6126 26.6891 19.5154C26.8997 19.4183 27.1443 19.296 27.4224 19.1486C27.7007 19.0013 27.9206 18.8432 28.0814 18.675C28.2424 18.5068 28.3935 18.3185 28.5337 18.1107C28.674 17.9029 28.7597 17.6669 28.7897 17.403C28.8199 17.1389 28.7983 16.8599 28.7251 16.566C28.6387 16.2197 28.4993 15.9284 28.3067 15.6922C28.1145 15.4558 27.9062 15.2735 27.6819 15.1455C27.4579 15.0174 27.18 14.9305 26.848 14.8852C26.5165 14.8396 26.2181 14.822 25.9537 14.8323C25.6893 14.8426 25.3697 14.8776 24.9948 14.9376C24.6197 14.9977 24.3248 15.0573 24.1099 15.1164C23.895 15.1756 23.6249 15.2484 23.2992 15.3354C22.974 15.4221 22.7761 15.4742 22.7055 15.4918L22.7055 15.4918L22.7053 15.4918L22.7053 15.4919ZM31.5094 25.3542C31.6156 25.1381 31.6862 24.8974 31.7218 24.6319C31.7572 24.3665 31.7383 24.0874 31.665 23.7932C31.5708 23.4152 31.4116 23.0981 31.1872 22.8419C30.9631 22.5855 30.7171 22.3909 30.4486 22.2568C30.1802 22.123 29.8511 22.0351 29.4615 21.993C29.0714 21.9507 28.7182 21.9358 28.4009 21.9479C28.0832 21.9602 27.6994 22.006 27.2494 22.0849C26.7988 22.1636 26.4479 22.2346 26.1965 22.2973C25.9451 22.36 25.6222 22.4457 25.2274 22.5554C24.8328 22.6651 24.5952 22.7298 24.5149 22.7499L25.8417 28.0716C25.9222 28.0515 26.1088 28.0078 26.4018 27.94C26.6947 27.8724 26.9368 27.8151 27.1279 27.7674C27.3189 27.7198 27.5836 27.6453 27.9215 27.5447C28.2596 27.4435 28.5484 27.3493 28.7881 27.2616C29.0281 27.1737 29.3035 27.058 29.615 26.9133C29.9258 26.7687 30.1868 26.6261 30.3971 26.484C30.6073 26.3424 30.8189 26.1728 31.0311 25.9748C31.2434 25.7771 31.4028 25.57 31.5094 25.3542Z" fill="#F7931A"/>
<path d="M31.8053 18.959L31.4705 18.5876L30.5043 19.4585L31.8051 19.459L31.8053 18.959ZM34.8494 19.9222L35.1672 19.5362L35.1672 19.5362L34.8494 19.9222ZM32.7687 14.4039L32.2958 14.5666L32.2971 14.5701L32.7687 14.4039ZM31.7686 12.7391L32.1216 12.385L32.1215 12.385L31.7686 12.7391ZM30.2177 11.8216L30.0744 12.3006L30.0748 12.3008L30.2177 11.8216ZM28.3364 11.538L28.3439 11.0381L28.3439 11.0381L28.3364 11.538ZM26.1363 11.7104L25.6511 11.8313L25.7614 12.2737L26.2121 12.2046L26.1363 11.7104ZM25.147 7.74283L25.6322 7.62187L25.5112 7.13672L25.0261 7.25768L25.147 7.74283ZM22.8242 8.32196L22.7033 7.83681L22.2181 7.95778L22.3391 8.44292L22.8242 8.32196ZM23.786 12.1793L23.9069 12.6644L24.3921 12.5435L24.2711 12.0583L23.786 12.1793ZM21.9537 12.6696L21.4685 12.7905L21.5926 13.2882L22.087 13.1515L21.9537 12.6696ZM20.9841 8.78076L21.4692 8.6598L21.3483 8.17465L20.8631 8.29561L20.9841 8.78076ZM18.661 9.35998L18.54 8.87483L18.0549 8.99579L18.1759 9.48094L18.661 9.35998ZM19.6502 13.3275L19.7865 13.8086L20.2526 13.6766L20.1354 13.2066L19.6502 13.3275ZM18.191 13.7082L18.3096 14.194L18.312 14.1934L18.191 13.7082ZM14.9892 14.4896L14.8707 14.0039L14.3825 14.123L14.5041 14.6106L14.9892 14.4896ZM15.633 17.0717L15.1479 17.1927L15.2688 17.6779L15.754 17.5569L15.633 17.0717ZM17.3073 16.6543L17.1863 16.1692L17.3073 16.6543ZM18.9167 17.3902L19.4018 17.2692L19.3909 17.2251L19.3721 17.1838L18.9167 17.3902ZM20.0433 21.9088L19.5582 22.0298L19.6791 22.5149L20.1643 22.394L20.0433 21.9088ZM20.2887 21.8645L20.4097 22.3497L20.2525 21.3658L20.2887 21.8645ZM20.0473 21.9247L19.9263 21.4396L19.4412 21.5605L19.5621 22.0457L20.0473 21.9247ZM21.6253 28.2536L22.123 28.206L22.1194 28.1689L22.1104 28.1327L21.6253 28.2536ZM19.2765 29.6922L19.1555 29.207L18.7428 29.3099L18.7782 29.7338L19.2765 29.6922ZM19.5272 32.69L19.0289 32.7317L19.0779 33.3173L19.6482 33.1752L19.5272 32.69ZM22.5441 31.9378L22.4232 31.4527L22.5441 31.9378ZM23.3756 31.7384L23.2618 31.2515L23.261 31.2517L23.3756 31.7384ZM24.192 31.5432L24.6772 31.4223L24.5562 30.9371L24.0711 31.0581L24.192 31.5432ZM25.193 35.5579L24.7078 35.6789L24.8288 36.164L25.314 36.0431L25.193 35.5579ZM27.5165 34.9786L27.6374 35.4638L28.1226 35.3428L28.0016 34.8577L27.5165 34.9786ZM26.5273 31.0111L26.4187 30.5231L25.918 30.6344L26.0421 31.1321L26.5273 31.0111ZM28.3714 30.5682L28.8565 30.4473L28.7356 29.9621L28.2504 30.0831L28.3714 30.5682ZM29.3566 34.5198L28.8715 34.6408L28.9924 35.1259L29.4776 35.005L29.3566 34.5198ZM31.6795 33.9407L31.8004 34.4258L32.2856 34.3049L32.1646 33.8197L31.6795 33.9407ZM30.6785 29.926L30.5331 29.4476L30.0784 29.5858L30.1933 30.0469L30.6785 29.926ZM32.8142 29.1427L32.6086 28.687L32.6086 28.687L32.8142 29.1427ZM34.5115 28.1423L34.2112 27.7426L34.211 27.7427L34.5115 28.1423ZM35.7447 26.8565L35.325 26.5848L35.3248 26.5851L35.7447 26.8565ZM36.3686 25.2126L36.8605 25.3027L36.8606 25.3021L36.3686 25.2126ZM36.3677 23.1222L36.8621 23.0472L36.8617 23.0452L36.3677 23.1222ZM22.7053 15.4919L22.2202 15.6128L22.3412 16.098L22.8263 15.977L22.7053 15.4919ZM23.9106 20.3252L23.4255 20.4462L23.5464 20.9313L24.0316 20.8103L23.9106 20.3252ZM24.433 20.2034L24.3206 19.7162L24.3206 19.7162L24.433 20.2034ZM25.1346 20.0285L25.2702 20.5097L25.2702 20.5097L25.1346 20.0285ZM25.881 19.8089L26.0247 20.2878L26.0247 20.2878L25.881 19.8089ZM26.6891 19.5154L26.4799 19.0612L26.4797 19.0613L26.6891 19.5154ZM27.4224 19.1486L27.1885 18.7067L27.1883 18.7068L27.4224 19.1486ZM28.0814 18.675L27.7202 18.3293L27.72 18.3295L28.0814 18.675ZM28.5337 18.1107L28.1193 17.8309L28.1193 17.8309L28.5337 18.1107ZM28.7897 17.403L28.293 17.3462L28.293 17.3464L28.7897 17.403ZM28.3067 15.6922L27.9188 16.0076L27.9192 16.0081L28.3067 15.6922ZM27.6819 15.1455L27.4337 15.5795L27.4341 15.5798L27.6819 15.1455ZM26.848 14.8852L26.78 15.3806L26.7804 15.3806L26.848 14.8852ZM24.9948 14.9376L24.9157 14.4439L24.9157 14.4439L24.9948 14.9376ZM24.1099 15.1164L23.9773 14.6343L23.9771 14.6343L24.1099 15.1164ZM23.2992 15.3354L23.428 15.8185L23.4282 15.8184L23.2992 15.3354ZM22.7055 15.4918L23.1906 15.3708L23.0697 14.8857L22.5845 15.0066L22.7055 15.4918ZM22.7053 15.4918L22.5844 15.0067L22.0992 15.1276L22.2202 15.6128L22.7053 15.4918ZM31.7218 24.6319L32.2173 24.6983L32.2174 24.6981L31.7218 24.6319ZM31.5094 25.3542L31.9576 25.5757L31.9581 25.5747L31.5094 25.3542ZM31.665 23.7932L32.1502 23.6723L32.1501 23.6722L31.665 23.7932ZM31.1872 22.8419L30.8107 23.171L30.8111 23.1714L31.1872 22.8419ZM30.4486 22.2568L30.6721 21.8095L30.6716 21.8092L30.4486 22.2568ZM29.4615 21.993L29.4076 22.4901L29.4077 22.4901L29.4615 21.993ZM28.4009 21.9479L28.3818 21.4483L28.3815 21.4483L28.4009 21.9479ZM27.2494 22.0849L27.3354 22.5775L27.3358 22.5774L27.2494 22.0849ZM25.2274 22.5554L25.0936 22.0736L25.0935 22.0737L25.2274 22.5554ZM24.5149 22.7499L24.3939 22.2647L23.9088 22.3857L24.0297 22.8708L24.5149 22.7499ZM25.8417 28.0716L25.3566 28.1926L25.4775 28.6777L25.9627 28.5568L25.8417 28.0716ZM26.4018 27.94L26.2894 27.4528L26.289 27.4529L26.4018 27.94ZM27.9215 27.5447L28.0642 28.0239L28.0648 28.0237L27.9215 27.5447ZM28.7881 27.2616L28.9599 27.7312L28.96 27.7311L28.7881 27.2616ZM29.615 26.9133L29.8256 27.3668L29.826 27.3667L29.615 26.9133ZM30.3971 26.484L30.1177 26.0694L30.1174 26.0696L30.3971 26.484ZM31.0311 25.9748L30.6904 25.6088L30.6899 25.6093L31.0311 25.9748ZM31.8051 19.459C32.9676 19.4594 33.8614 19.7565 34.5316 20.3082L35.1672 19.5362C34.2786 18.8047 33.1429 18.4594 31.8055 18.459L31.8051 19.459ZM32.2971 14.5701C32.6034 15.4397 32.6686 16.1904 32.5316 16.8383C32.3956 17.4811 32.0523 18.0632 31.4705 18.5876L32.1401 19.3304C32.8579 18.6833 33.3248 17.9206 33.5099 17.0452C33.694 16.1747 33.591 15.2336 33.2403 14.2378L32.2971 14.5701ZM31.4156 13.0932C31.7868 13.4633 32.0833 13.9487 32.2959 14.5666L33.2415 14.2413C32.9877 13.5037 32.6179 12.8798 32.1216 12.385L31.4156 13.0932ZM30.0748 12.3008C30.5976 12.4567 31.0414 12.7204 31.4157 13.0933L32.1215 12.385C31.6278 11.8929 31.0388 11.5448 30.3607 11.3425L30.0748 12.3008ZM28.3289 12.038C28.9389 12.0471 29.5206 12.1349 30.0744 12.3006L30.3611 11.3426C29.7147 11.1491 29.0413 11.0485 28.3439 11.0381L28.3289 12.038ZM26.2121 12.2046C27.0039 12.0831 27.709 12.0287 28.329 12.038L28.3439 11.0381C27.6562 11.0278 26.8941 11.0883 26.0604 11.2162L26.2121 12.2046ZM24.6619 7.86379L25.6511 11.8313L26.6214 11.5894L25.6322 7.62187L24.6619 7.86379ZM22.9452 8.80711L25.268 8.22797L25.0261 7.25768L22.7033 7.83681L22.9452 8.80711ZM24.2711 12.0583L23.3094 8.201L22.3391 8.44292L23.3008 12.3002L24.2711 12.0583ZM22.087 13.1515C22.9054 12.9251 23.5112 12.7631 23.9069 12.6644L23.665 11.6941C23.2563 11.796 22.6405 11.9608 21.8204 12.1877L22.087 13.1515ZM20.499 8.90172L21.4685 12.7905L22.4388 12.5486L21.4692 8.6598L20.499 8.90172ZM18.782 9.84513L21.1051 9.26591L20.8631 8.29561L18.54 8.87483L18.782 9.84513ZM20.1354 13.2066L19.1461 9.23902L18.1759 9.48094L19.1651 13.4485L20.1354 13.2066ZM18.312 14.1934C18.9569 14.0326 19.4494 13.9041 19.7865 13.8086L19.5139 12.8465C19.1924 12.9376 18.7122 13.063 18.07 13.2231L18.312 14.1934ZM15.1078 14.9754L18.3096 14.194L18.0725 13.2225L14.8707 14.0039L15.1078 14.9754ZM16.1182 16.9508L15.4744 14.3687L14.5041 14.6106L15.1479 17.1927L16.1182 16.9508ZM17.1863 16.1692L15.512 16.5866L15.754 17.5569L17.4282 17.1395L17.1863 16.1692ZM19.3721 17.1838C19.1817 16.7636 18.8957 16.4258 18.4908 16.2407C18.0896 16.0572 17.6415 16.0557 17.1863 16.1692L17.4282 17.1395C17.7373 17.0624 17.9396 17.0882 18.0749 17.1501C18.2065 17.2103 18.343 17.3357 18.4613 17.5965L19.3721 17.1838ZM20.5285 21.7879L19.4018 17.2692L18.4315 17.5111L19.5582 22.0298L20.5285 21.7879ZM20.2525 21.3658C20.1492 21.3733 20.0365 21.3952 19.9224 21.4237L20.1643 22.394C20.2516 22.3722 20.3023 22.3648 20.325 22.3632L20.2525 21.3658ZM20.1682 22.4099L20.4097 22.3497L20.1678 21.3794L19.9263 21.4396L20.1682 22.4099ZM22.1104 28.1327L20.5324 21.8037L19.5621 22.0457L21.1401 28.3746L22.1104 28.1327ZM21.0716 29.7599C21.4105 29.6754 21.715 29.5016 21.9136 29.2009C22.1087 28.9056 22.1564 28.5559 22.123 28.206L21.1275 28.3012C21.1472 28.5066 21.109 28.6047 21.0792 28.6498C21.053 28.6895 20.9936 28.7487 20.8297 28.7896L21.0716 29.7599ZM19.3975 30.1773L21.0716 29.7599L20.8297 28.7896L19.1555 29.207L19.3975 30.1773ZM20.0255 32.6484L19.7748 29.6505L18.7782 29.7338L19.0289 32.7317L20.0255 32.6484ZM22.4232 31.4527L19.4062 32.2049L19.6482 33.1752L22.6651 32.423L22.4232 31.4527ZM23.261 31.2517C22.8975 31.3373 22.6177 31.4042 22.4232 31.4527L22.6651 32.423C22.8527 32.3762 23.127 32.3106 23.4902 32.225L23.261 31.2517ZM24.0711 31.0581C23.8937 31.1023 23.6245 31.1667 23.2618 31.2515L23.4895 32.2252C23.8533 32.1401 24.1282 32.0744 24.313 32.0284L24.0711 31.0581ZM25.6781 35.437L24.6772 31.4223L23.7069 31.6642L24.7078 35.6789L25.6781 35.437ZM27.3955 34.4935L25.072 35.0728L25.314 36.0431L27.6374 35.4638L27.3955 34.4935ZM26.0421 31.1321L27.0313 35.0996L28.0016 34.8577L27.0124 30.8902L26.0421 31.1321ZM28.2504 30.0831C27.4469 30.2834 26.8372 30.43 26.4187 30.5231L26.6358 31.4992C27.0672 31.4033 27.6868 31.2542 28.4923 31.0534L28.2504 30.0831ZM29.8418 34.3989L28.8565 30.4473L27.8862 30.6892L28.8715 34.6408L29.8418 34.3989ZM31.5585 33.4555L29.2357 34.0347L29.4776 35.005L31.8004 34.4258L31.5585 33.4555ZM30.1933 30.0469L31.1943 34.0616L32.1646 33.8197L31.1636 29.805L30.1933 30.0469ZM32.6086 28.687C32.0234 28.9511 31.3324 29.2046 30.5331 29.4476L30.8239 30.4044C31.6533 30.1522 32.3863 29.8844 33.0199 29.5985L32.6086 28.687ZM34.211 27.7427C33.7199 28.112 33.1859 28.4265 32.6086 28.687L33.0199 29.5985C33.662 29.3088 34.26 28.957 34.812 28.5419L34.211 27.7427ZM35.3248 26.5851C35.0613 26.9929 34.6938 27.38 34.2112 27.7426L34.8119 28.5421C35.3725 28.1209 35.8271 27.6504 36.1647 27.1278L35.3248 26.5851ZM35.8768 25.1225C35.7712 25.6994 35.5847 26.1835 35.325 26.5848L36.1645 27.1281C36.5065 26.5997 36.735 25.9877 36.8605 25.3027L35.8768 25.1225ZM35.8734 23.1972C35.9824 23.916 35.9798 24.5562 35.8767 25.1232L36.8606 25.3021C36.9869 24.6075 36.9844 23.8542 36.8621 23.0472L35.8734 23.1972ZM34.5315 20.3082C35.1792 20.8415 35.6511 21.7708 35.8737 23.1992L36.8617 23.0452C36.6196 21.4909 36.0786 20.2868 35.1672 19.5362L34.5315 20.3082ZM22.5845 15.0067L22.5844 15.0067L22.8263 15.977L22.8265 15.977L22.5845 15.0067ZM22.2204 15.6128L23.4255 20.4462L24.3958 20.2042L23.1907 15.3709L22.2204 15.6128ZM24.0316 20.8103C24.0765 20.7992 24.2442 20.7601 24.5455 20.6906L24.3206 19.7162C24.0256 19.7843 23.8455 19.8261 23.7896 19.8401L24.0316 20.8103ZM24.5455 20.6906C24.8466 20.6211 25.0892 20.5607 25.2702 20.5097L24.999 19.5472C24.8405 19.5919 24.6156 19.6481 24.3206 19.7162L24.5455 20.6906ZM25.2702 20.5097C25.4441 20.4607 25.6964 20.3863 26.0247 20.2878L25.7373 19.3299C25.4095 19.4283 25.1642 19.5007 24.999 19.5472L25.2702 20.5097ZM26.0247 20.2878C26.3658 20.1854 26.659 20.0798 26.8984 19.9694L26.4797 19.0613C26.2975 19.1453 26.0522 19.2355 25.7373 19.3299L26.0247 20.2878ZM26.8983 19.9695C27.1197 19.8675 27.3729 19.7407 27.6566 19.5904L27.1883 18.7068C26.9157 18.8513 26.6797 18.9692 26.4799 19.0612L26.8983 19.9695ZM27.6564 19.5905C27.9665 19.4263 28.2345 19.2384 28.4428 19.0206L27.72 18.3295C27.6067 18.448 27.4349 18.5762 27.1885 18.7067L27.6564 19.5905ZM28.4426 19.0208C28.6245 18.8307 28.7931 18.6201 28.9482 18.3904L28.1193 17.8309C27.9938 18.0169 27.8603 18.1829 27.7202 18.3293L28.4426 19.0208ZM28.9482 18.3904C29.1357 18.1125 29.2478 17.7991 29.2865 17.4596L28.293 17.3464C28.2715 17.5346 28.2122 17.6933 28.1193 17.8309L28.9482 18.3904ZM29.2865 17.4598C29.3244 17.1285 29.296 16.789 29.2102 16.4451L28.2399 16.687C28.3007 16.9309 28.3155 17.1493 28.293 17.3462L29.2865 17.4598ZM29.2102 16.4451C29.1091 16.0396 28.9407 15.6785 28.6943 15.3762L27.9192 16.0081C28.0579 16.1783 28.1683 16.3999 28.2399 16.687L29.2102 16.4451ZM28.6947 15.3767C28.4704 15.1009 28.2164 14.8748 27.9296 14.7112L27.4341 15.5798C27.596 15.6721 27.7586 15.8106 27.9188 16.0076L28.6947 15.3767ZM27.9301 14.7114C27.6367 14.5437 27.2934 14.4414 26.9157 14.3898L26.7804 15.3806C27.0667 15.4197 27.2791 15.4911 27.4337 15.5795L27.9301 14.7114ZM26.9161 14.3899C26.5628 14.3413 26.2344 14.321 25.9343 14.3327L25.9731 15.3319C26.2019 15.323 26.4703 15.338 26.78 15.3806L26.9161 14.3899ZM25.9343 14.3327C25.6435 14.344 25.3028 14.3819 24.9157 14.4439L25.0738 15.4313C25.4365 15.3733 25.7351 15.3412 25.9731 15.3319L25.9343 14.3327ZM24.9157 14.4439C24.5332 14.5052 24.2178 14.5681 23.9773 14.6343L24.2424 15.5985C24.4318 15.5464 24.7062 15.4902 25.0738 15.4313L24.9157 14.4439ZM23.9771 14.6343C23.7641 14.693 23.4954 14.7655 23.1703 14.8523L23.4282 15.8184C23.7543 15.7314 24.0259 15.6581 24.2427 15.5984L23.9771 14.6343ZM23.1704 14.8522C22.8433 14.9394 22.6502 14.9903 22.5845 15.0067L22.8265 15.977C22.902 15.9581 23.1046 15.9047 23.428 15.8185L23.1704 14.8522ZM22.2203 15.6127L22.2204 15.6128L23.1907 15.3709L23.1906 15.3708L22.2203 15.6127ZM22.8263 15.977L22.8265 15.9769L22.5845 15.0066L22.5844 15.0067L22.8263 15.977ZM23.1905 15.3709L23.1905 15.3708L22.2202 15.6128L22.2202 15.6128L23.1905 15.3709ZM31.2262 24.5655C31.197 24.7837 31.1404 24.9714 31.0606 25.1337L31.9581 25.5747C32.0908 25.3047 32.1754 25.011 32.2173 24.6983L31.2262 24.5655ZM31.1798 23.914C31.2399 24.1552 31.2522 24.3705 31.2262 24.5658L32.2174 24.6981C32.2622 24.3625 32.2367 24.0196 32.1502 23.6723L31.1798 23.914ZM30.8111 23.1714C30.9759 23.3595 31.102 23.602 31.1799 23.9141L32.1501 23.6722C32.0395 23.2284 31.8473 22.8366 31.5633 22.5124L30.8111 23.1714ZM30.2252 22.7041C30.4284 22.8056 30.6239 22.9573 30.8107 23.171L31.5637 22.5129C31.3023 22.2138 31.0058 21.9762 30.6721 21.8095L30.2252 22.7041ZM29.4077 22.4901C29.7556 22.5277 30.0238 22.6037 30.2257 22.7043L30.6716 21.8092C30.3366 21.6423 29.9465 21.5425 29.5152 21.4959L29.4077 22.4901ZM28.4199 22.4475C28.7082 22.4365 29.0366 22.4498 29.4076 22.4901L29.5153 21.4959C29.1063 21.4515 28.7282 21.4351 28.3818 21.4483L28.4199 22.4475ZM27.3358 22.5774C27.7724 22.5008 28.1325 22.4587 28.4202 22.4475L28.3815 21.4483C28.0339 21.4618 27.6263 21.5111 27.1629 21.5925L27.3358 22.5774ZM26.3175 22.7825C26.552 22.724 26.8896 22.6553 27.3354 22.5775L27.1634 21.5924C26.7081 21.6719 26.3438 21.7453 26.0756 21.8122L26.3175 22.7825ZM25.3613 23.0371C25.7534 22.9282 26.0718 22.8437 26.3175 22.7825L26.0756 21.8122C25.8184 21.8763 25.4909 21.9633 25.0936 22.0736L25.3613 23.0371ZM24.6358 23.235C24.7243 23.213 24.9696 23.1461 25.3614 23.0371L25.0935 22.0737C24.696 22.1842 24.4661 22.2467 24.3939 22.2647L24.6358 23.235ZM26.3269 27.9506L25 22.6289L24.0297 22.8708L25.3566 28.1926L26.3269 27.9506ZM26.289 27.4529C25.9978 27.5203 25.8063 27.5651 25.7208 27.5865L25.9627 28.5568C26.0381 28.5379 26.2198 28.4954 26.5146 28.4271L26.289 27.4529ZM27.007 27.2823C26.8201 27.3289 26.5813 27.3854 26.2894 27.4528L26.5142 28.4272C26.8082 28.3594 27.0536 28.3013 27.2489 28.2526L27.007 27.2823ZM27.7788 27.0655C27.443 27.1655 27.1869 27.2374 27.007 27.2823L27.2489 28.2526C27.451 28.2022 27.7242 28.1252 28.0642 28.0239L27.7788 27.0655ZM28.6163 26.7921C28.3889 26.8752 28.1102 26.9663 27.7782 27.0657L28.0648 28.0237C28.409 27.9207 28.7079 27.8234 28.9599 27.7312L28.6163 26.7921ZM29.4045 26.4598C29.102 26.6003 28.8398 26.7102 28.6162 26.7921L28.96 27.7311C29.2164 27.6372 29.505 27.5157 29.8256 27.3668L29.4045 26.4598ZM30.1174 26.0696C29.9355 26.1924 29.6995 26.3225 29.4041 26.46L29.826 27.3667C30.1521 27.2149 30.438 27.0597 30.6769 26.8985L30.1174 26.0696ZM30.6899 25.6093C30.4948 25.7914 30.3036 25.9441 30.1177 26.0694L30.6765 26.8987C30.911 26.7407 31.1431 26.5542 31.3723 26.3403L30.6899 25.6093ZM31.0611 25.1328C30.986 25.2847 30.8669 25.4445 30.6904 25.6088L31.3718 26.3407C31.6198 26.1098 31.8195 25.8553 31.9576 25.5757L31.0611 25.1328Z" fill="black"/>
<path fill-rule="evenodd" clip-rule="evenodd" d="M24 46.8461C36.6175 46.8461 46.8461 36.6175 46.8461 24C46.8461 11.3824 36.6175 1.15381 24 1.15381C11.3824 1.15381 1.15381 11.3824 1.15381 24C1.15381 36.6175 11.3824 46.8461 24 46.8461Z" stroke="#F7931A" stroke-width="1.38125"/>
</svg>
