<svg width="40" height="40" viewBox="0 0 40 40" fill="none" xmlns="http://www.w3.org/2000/svg">
<g clip-path="url(#clip0_23_7677)">
<path d="M6.68887 12.5442C6.68887 12.5442 6.68887 12.5441 6.68887 12.5439L6.67083 12.3659C6.57684 11.4343 5.77325 10.7274 4.83411 10.7583L2.89083 10.821C2.39739 10.8369 1.92786 11.0591 1.60278 11.4306C1.27762 11.802 1.11958 12.2969 1.16926 12.7881L1.21403 13.231C1.26364 13.7222 1.51739 14.1754 1.91028 14.4744C2.22301 14.7124 2.60637 14.8393 2.9952 14.8393C3.09489 14.8393 3.19504 14.831 3.29426 14.814L5.21075 14.4866C6.13372 14.329 6.78301 13.4758 6.68887 12.5442ZM5.01348 13.3315L3.097 13.6589C2.92668 13.688 2.75747 13.6464 2.61997 13.5418C2.48254 13.4373 2.39731 13.2851 2.38004 13.1132L2.33528 12.6702C2.31786 12.4984 2.37098 12.3322 2.48465 12.2023C2.5984 12.0724 2.75606 11.9978 2.92864 11.9922L4.87192 11.9295C4.87864 11.9293 4.8852 11.9292 4.89184 11.9292C5.2059 11.9292 5.47325 12.1692 5.50504 12.4838L5.52309 12.6619C5.55543 12.9831 5.33153 13.2771 5.01348 13.3315Z" fill="#9F9F9F"/>
<path d="M3.32777 8.63384L5.15113 9.30853C5.35363 9.38345 5.56191 9.41907 5.76746 9.41907C6.45308 9.41907 7.10683 9.02228 7.40246 8.36532L7.47597 8.20189C7.86027 7.34806 7.51457 6.33314 6.6891 5.89134L4.97488 4.974C4.53957 4.74103 4.02199 4.69884 3.55464 4.85782C3.0873 5.01696 2.703 5.36642 2.50027 5.81673L2.31761 6.22282C2.11496 6.67306 2.10816 7.19235 2.29894 7.64774C2.48972 8.10314 2.86472 8.46251 3.32777 8.63384ZM3.38628 6.70376L3.56894 6.29775C3.6398 6.14025 3.76894 6.02282 3.93238 5.9672C3.998 5.94485 4.06519 5.93376 4.13214 5.93376C4.23183 5.93376 4.33082 5.95845 4.42191 6.0072L6.13605 6.92462C6.42066 7.07689 6.5398 7.42673 6.40738 7.72103L6.33386 7.88446C6.20136 8.17884 5.86027 8.3215 5.55777 8.20954L3.73441 7.53485C3.57254 7.47493 3.44652 7.35423 3.3798 7.19493C3.31308 7.03571 3.31543 6.86126 3.38628 6.70376Z" fill="#9F9F9F"/>
<path d="M7.55756 4.68672C7.90865 5.10969 8.42006 5.33102 8.93639 5.33102C9.29951 5.33102 9.66514 5.22141 9.97881 4.99547L10.1242 4.89071C10.8839 4.34344 11.092 3.29164 10.598 2.49625L9.57209 0.844689C9.31162 0.425314 8.88443 0.129768 8.40014 0.0339863C7.91615 -0.061873 7.40834 0.048752 7.00779 0.337346L6.64646 0.597658C6.24584 0.886252 5.98029 1.33266 5.91787 1.82242C5.85537 2.31211 6.00045 2.81086 6.31568 3.1907L7.55756 4.68672ZM7.08029 1.97063C7.10217 1.7993 7.19139 1.64938 7.33146 1.54844L7.69279 1.28813C7.79928 1.21141 7.92326 1.17156 8.051 1.17156C8.09139 1.17156 8.13209 1.17555 8.17279 1.1836C8.34217 1.21711 8.48561 1.31633 8.5767 1.46305L9.60256 3.11461C9.77287 3.38875 9.70115 3.75133 9.43928 3.93992L9.29389 4.04469C9.03193 4.23328 8.66553 4.18656 8.45928 3.93828L7.2174 2.44219C7.10717 2.30938 7.0585 2.14188 7.08029 1.97063Z" fill="#9F9F9F"/>
<path d="M38.8396 23.6211C38.8396 23.6209 38.8396 23.6209 38.8396 23.6207C38.8396 22.9172 38.5656 22.2558 38.0679 21.7581C37.6189 21.3091 37.0361 21.0429 36.4097 20.9951V17.0367C36.4097 14.7929 34.9552 12.8428 32.8693 12.1735C33.1036 11.3394 33.2271 10.4646 33.2271 9.56844C33.2271 4.29234 28.9347 0 23.6586 0C18.4721 0 14.2364 4.14883 14.0949 9.30234C12.9363 9.94992 11.9102 10.8389 11.0958 11.9278H10.7046C9.57323 11.9278 8.50901 12.3684 7.70745 13.1689C6.90838 13.9689 6.46799 15.0316 6.4669 16.1614C6.46682 16.1628 6.46643 16.1642 6.46643 16.1656V35.7617C6.46643 36.8941 6.90729 37.9584 7.7076 38.7588C8.50807 39.5592 9.57245 40 10.7048 40H31.301C32.2185 40 33.1183 39.7539 33.9031 39.2883C34.1814 39.1231 34.2731 38.7637 34.108 38.4854C33.9429 38.207 33.5833 38.1154 33.3051 38.2805C32.7013 38.6387 32.0082 38.8281 31.301 38.8281H17.876V28.3693C18.8375 28.1105 19.5476 27.2315 19.5476 26.1894C19.5476 24.9446 18.5349 23.9319 17.2901 23.9319C16.0453 23.9319 15.0326 24.9446 15.0326 26.1894C15.0326 27.2315 15.7426 28.1105 16.7042 28.3693V38.8281H14.8696V33.6805C14.8696 33.5251 14.8079 33.376 14.6981 33.2662L13.0058 31.574C13.1978 31.2422 13.3082 30.8576 13.3082 30.4475C13.3082 29.2027 12.2955 28.19 11.0507 28.19C9.80588 28.19 8.79323 29.2027 8.79323 30.4475C8.79323 31.6923 9.80596 32.705 11.0507 32.705C11.4608 32.705 11.8453 32.5945 12.1771 32.4027L13.6978 33.9233V38.8281H10.7049C9.88557 38.8281 9.11542 38.5092 8.53643 37.9302C7.95737 37.3512 7.63846 36.581 7.63846 35.7617V19.0909C8.23346 19.7156 9.01995 20.1617 9.91706 20.3294C10.1718 20.3785 10.4368 20.4034 10.7048 20.4034H31.3009C33.4718 20.4034 35.238 22.1696 35.238 24.3405C35.238 24.3441 35.2385 24.3475 35.2385 24.351V25.0839H32.8492C32.8491 25.0839 32.8492 25.0839 32.8491 25.0839C31.6021 25.0839 30.4296 25.5695 29.5478 26.4512C28.6659 27.333 28.1802 28.5055 28.1802 29.7524C28.1802 32.3266 30.2746 34.4209 32.8488 34.4209H35.2385V34.8913C35.2385 35.5737 35.0617 36.245 34.727 36.8326C34.5668 37.1138 34.665 37.4716 34.9462 37.6317C35.0378 37.6838 35.1374 37.7086 35.2357 37.7086C35.4393 37.7086 35.6374 37.6022 35.7453 37.4125C36.1804 36.6485 36.4104 35.7767 36.4104 34.8913V34.4121C37.7675 34.3069 38.8399 33.1698 38.8399 31.7863L38.8396 23.6211ZM16.2044 26.1894C16.2044 25.5908 16.6914 25.1038 17.29 25.1038C17.8887 25.1038 18.3756 25.5908 18.3756 26.1894C18.3756 26.788 17.8887 27.275 17.29 27.275C16.6914 27.275 16.2044 26.788 16.2044 26.1894ZM9.96495 30.4474C9.96495 29.8488 10.452 29.3618 11.0506 29.3618C11.6492 29.3618 12.1362 29.8488 12.1362 30.4474C12.1362 31.046 11.6492 31.533 11.0506 31.533C10.4519 31.533 9.96495 31.046 9.96495 30.4474ZM37.2393 22.5868C37.5156 22.863 37.6677 23.2302 37.6677 23.6207C37.6677 24.3578 37.1196 24.9677 36.4102 25.0678V24.3406C36.4102 24.337 36.4097 24.3336 36.4096 24.3301V22.1742C36.7226 22.2178 37.0119 22.3594 37.2393 22.5868ZM23.6586 1.17188C28.2885 1.17188 32.0552 4.93852 32.0552 9.56836C32.0552 12.4286 30.6254 15.0419 28.27 16.5864C28.2231 16.1651 28.1487 15.752 28.0486 15.3488C29.8528 13.979 30.9181 11.8487 30.9181 9.56867C30.9181 9.0268 30.8578 8.48617 30.7387 7.96164C30.667 7.64602 30.3528 7.44836 30.0375 7.51992C29.722 7.59156 29.5242 7.90547 29.5958 8.22101C29.6956 8.66055 29.7462 9.11398 29.7462 9.56867C29.7462 11.3387 28.9803 13.0014 27.6658 14.1501C27.404 13.487 27.0699 12.86 26.6737 12.2786C26.9959 11.8841 27.1711 11.3948 27.1711 10.878C27.1711 10.0237 26.686 9.28078 25.9769 8.9093C26.1492 8.62383 26.2486 8.28953 26.2486 7.9325C26.2486 7.0918 25.6983 6.3775 24.939 6.13008V5.13398C24.939 4.81039 24.6767 4.54805 24.3531 4.54805C24.0294 4.54805 23.7671 4.81039 23.7671 5.13398V6.03703H23.2142V5.13398C23.2142 4.81039 22.9519 4.54805 22.6282 4.54805C22.3046 4.54805 22.0423 4.81039 22.0423 5.13398V6.03703H21.9574H20.9401C20.6164 6.03703 20.3542 6.29938 20.3542 6.62297C20.3542 6.94656 20.6164 7.20891 20.9401 7.20891H21.3714V8.44695C20.5416 8.21141 19.6661 8.08516 18.7618 8.08516C18.4189 8.08516 18.0785 8.10469 17.7414 8.14094C18.3867 5.43719 20.8071 3.48125 23.6587 3.48125C25.7266 3.48125 27.6353 4.51742 28.7644 6.25313C28.9409 6.52445 29.3039 6.60117 29.5751 6.42477C29.8464 6.24828 29.9232 5.88531 29.7467 5.61414C28.4006 3.54484 26.1246 2.30945 23.6587 2.30945C20.0884 2.30945 17.0843 4.88094 16.5026 8.3568C16.0942 8.45625 15.6942 8.58266 15.3043 8.73391C15.7246 4.49438 19.3109 1.17188 23.6586 1.17188ZM24.3532 7.20891C24.7521 7.20891 25.0768 7.53359 25.0768 7.93258C25.0768 8.33156 24.7522 8.65625 24.3532 8.65625H22.5434V7.20891H24.3532ZM24.9496 9.82844C25.5284 9.82844 25.9993 10.2993 25.9993 10.8781C25.9993 11.0263 25.9681 11.1692 25.9101 11.3006C25.4196 10.7492 24.8666 10.2547 24.262 9.82844H24.9496ZM7.63877 16.1656C7.63877 15.347 7.95768 14.5768 8.53612 13.9976C9.02698 13.5073 9.65456 13.2045 10.3324 13.1229C9.58487 14.509 9.19385 16.0554 9.19385 17.6532C9.19385 18.0641 9.22081 18.4731 9.2726 18.8775C8.28979 18.3588 7.63877 17.327 7.63877 16.1656ZM10.5136 19.2249C10.416 18.7105 10.3657 18.1836 10.3657 17.653C10.3657 15.9231 10.8876 14.2621 11.8749 12.8496C13.4467 10.6 16.0213 9.25695 18.7618 9.25695C23.3914 9.25695 27.1579 13.0234 27.1579 17.653C27.1579 18.1862 27.1075 18.7152 27.0089 19.2315H25.8467C25.9613 18.7158 26.0204 18.1877 26.0204 17.653C26.0204 13.6506 22.7642 10.3945 18.7619 10.3945C14.7596 10.3945 11.5033 13.6506 11.5033 17.653C11.5033 18.1877 11.5624 18.7157 11.6771 19.2315H10.7047C10.6406 19.2316 10.577 19.2288 10.5136 19.2249ZM17.6466 19.2316V17.9132H20.0522C20.631 17.9132 21.1019 18.3841 21.1019 18.9629C21.1019 19.0543 21.0896 19.1445 21.0665 19.2316H17.6466ZM19.4559 15.2939C19.8549 15.2939 20.1796 15.6186 20.1796 16.0176C20.1796 16.4166 19.855 16.7412 19.4559 16.7412H17.6462V15.2939H19.4559ZM21.0799 16.9942C21.2522 16.7087 21.3515 16.3746 21.3515 16.0176C21.3515 15.1768 20.8011 14.4626 20.0418 14.2152V13.219C20.0418 12.8954 19.7796 12.633 19.4559 12.633C19.1322 12.633 18.8699 12.8954 18.8699 13.219V14.122H18.317V13.219C18.317 12.8954 18.0547 12.633 17.731 12.633C17.4074 12.633 17.1451 12.8954 17.1451 13.219V14.122H17.0603H16.043C15.7193 14.122 15.4571 14.3844 15.4571 14.708C15.4571 15.0316 15.7193 15.2939 16.043 15.2939H16.4743V17.3272C16.4743 17.3298 16.4746 17.3322 16.4747 17.3348V19.2316H12.8832C12.7458 18.7193 12.6751 18.1902 12.6751 17.6531C12.6751 14.2969 15.4056 11.5664 18.7618 11.5664C22.118 11.5664 24.8485 14.2969 24.8485 17.6531C24.8485 18.1904 24.7778 18.7194 24.6404 19.2316H22.2564C22.2672 19.1427 22.2737 19.0531 22.2737 18.9629C22.2738 18.1086 21.7888 17.3658 21.0799 16.9942ZM35.2378 21.088C34.2999 19.9547 32.8833 19.2316 31.3007 19.2316H28.1988C28.2705 18.8006 28.3135 18.363 28.3257 17.9224C30.2269 16.8602 31.6696 15.2181 32.4822 13.2805C34.1041 13.7876 35.2378 15.2973 35.2378 17.0366V21.088ZM37.6678 31.7863C37.6678 32.5929 37.0117 33.2491 36.205 33.2491H32.8486C30.9205 33.2491 29.3519 31.6805 29.3519 29.7524C29.3519 28.8184 29.7157 27.9404 30.3762 27.2799C31.0367 26.6195 31.9149 26.2558 32.8489 26.2558H36.2053C36.746 26.2558 37.2491 26.092 37.6678 25.8114V31.7863H37.6678Z" fill="#9F9F9F"/>
<path d="M32.8487 27.4949C31.6039 27.4949 30.5912 28.5076 30.5912 29.7524C30.5912 30.9971 31.604 32.0099 32.8487 32.0099C34.0935 32.0099 35.1062 30.9971 35.1062 29.7524C35.1062 28.5076 34.0935 27.4949 32.8487 27.4949ZM32.8487 30.838C32.2502 30.838 31.7631 30.351 31.7631 29.7524C31.7631 29.1538 32.2502 28.6667 32.8487 28.6667C33.4473 28.6667 33.9344 29.1538 33.9344 29.7524C33.9344 30.351 33.4473 30.838 32.8487 30.838Z" fill="#9F9F9F"/>
</g>
<defs>
<clipPath id="clip0_23_7677">
<rect width="40" height="40" fill="white"/>
</clipPath>
</defs>
</svg>
