<svg width="19" height="24" viewBox="0 0 19 24" fill="none" xmlns="http://www.w3.org/2000/svg">
<path fill-rule="evenodd" clip-rule="evenodd" d="M18.1317 9.86322C18.4958 7.426 16.6401 6.1158 14.1027 5.24176L14.9258 1.94023L12.9156 1.43939L12.1142 4.65392C11.5865 4.52227 11.0439 4.39806 10.5047 4.275L11.3117 1.03929L9.30322 0.538452L8.47956 3.83884C8.04225 3.73924 7.61296 3.64079 7.19626 3.53719L7.19855 3.52689L4.42705 2.83487L3.89244 4.98133C3.89244 4.98133 5.38351 5.32304 5.35203 5.34422C6.16596 5.54742 6.31364 6.08603 6.28846 6.51304L5.35088 10.2742C5.40698 10.2885 5.47967 10.3091 5.55981 10.3412L5.34802 10.2885L4.03325 15.5573C3.93365 15.8046 3.68123 16.1755 3.11228 16.0347C3.13231 16.0639 1.65154 15.6701 1.65154 15.6701L0.65387 17.9711L3.26968 18.623C3.56497 18.697 3.85668 18.7731 4.14518 18.8484C4.33203 18.8972 4.51753 18.9456 4.7018 18.9928L3.87012 22.3327L5.87748 22.8335L6.70172 19.5297C7.24949 19.6785 7.78182 19.8159 8.30269 19.9453L7.48188 23.2336L9.49154 23.7345L10.3232 20.4015C13.7501 21.05 16.3276 20.7884 17.4111 17.6895C18.2851 15.1939 17.3682 13.7543 15.5651 12.815C16.8782 12.5111 17.8673 11.6474 18.1312 9.86322H18.1317ZM13.5395 16.302C12.9689 18.5925 9.38295 17.6448 7.74366 17.2115C7.59687 17.1727 7.46568 17.1381 7.35367 17.1102L8.45723 12.6862C8.59414 12.7204 8.76141 12.7579 8.95089 12.8005C10.6468 13.181 14.1223 13.9609 13.54 16.302H13.5395ZM9.29177 10.7476C10.6596 11.1125 13.6411 11.9079 14.1605 9.82716C14.6915 7.6985 11.7923 7.05691 10.3764 6.74357C10.2172 6.70834 10.0767 6.67727 9.96204 6.64869L8.96151 10.6611C9.05618 10.6847 9.16729 10.7144 9.29177 10.7476Z" fill="#F7931A"/>
</svg>
