<svg width="40" height="40" viewBox="0 0 40 40" fill="none" xmlns="http://www.w3.org/2000/svg">
<g clip-path="url(#clip0_23_7636)">
<path d="M39.395 9.23877C39.3922 9.2219 39.3928 9.20409 39.3884 9.18752C39.3763 9.14196 39.3584 9.09816 39.335 9.05721C39.3272 9.04315 39.3153 9.0319 39.3059 9.01877C39.2892 8.99239 39.2701 8.96751 39.2491 8.9444C39.2362 8.93127 39.22 8.92221 39.2059 8.91034C39.1851 8.8911 39.1627 8.87354 39.1391 8.85784L39.135 8.85627L39.1316 8.85378L34.5625 6.23596C34.4797 6.18857 34.386 6.16364 34.2906 6.16364C34.1952 6.16364 34.1015 6.18857 34.0187 6.23596L29.4472 8.85346L29.4437 8.85596L29.4397 8.85752C29.4159 8.87332 29.3935 8.89098 29.3725 8.91034C29.3584 8.9219 29.3412 8.93127 29.3297 8.94409C29.3084 8.96747 29.2891 8.99267 29.2722 9.0194C29.2631 9.03252 29.2516 9.04346 29.2437 9.05721C29.2204 9.09817 29.2024 9.14197 29.1903 9.18752C29.1859 9.20346 29.1866 9.22065 29.1837 9.2369C29.1772 9.26682 29.1732 9.29724 29.1719 9.32784V10.4419L25.1059 7.89565C25.1118 7.86828 25.1156 7.84048 25.1172 7.81252V3.2419C25.1157 3.21183 25.1118 3.18193 25.1053 3.15253C25.1025 3.13565 25.1031 3.11784 25.0987 3.10128C25.0866 3.05582 25.0686 3.01213 25.0453 2.97128C25.0344 2.95504 25.0226 2.93939 25.01 2.9244C24.9949 2.90117 24.9781 2.87912 24.9597 2.85846C24.9432 2.84391 24.9259 2.83035 24.9078 2.81784C24.8893 2.80118 24.8697 2.78583 24.8491 2.7719H24.8459L24.8437 2.76721L20.2719 0.149714C20.1891 0.102324 20.0954 0.0773926 20 0.0773926C19.9046 0.0773926 19.8109 0.102324 19.7281 0.149714L15.1562 2.76721L15.1525 2.77003H15.1494C15.1286 2.78405 15.1089 2.7995 15.0903 2.81628C15.0723 2.82869 15.0551 2.84215 15.0387 2.85659C15.0201 2.87753 15.003 2.89989 14.9878 2.92346C14.9755 2.93816 14.9639 2.9535 14.9531 2.9694C14.9298 3.01035 14.9118 3.05415 14.8997 3.09971C14.8953 3.11565 14.8959 3.13284 14.8931 3.14909C14.8866 3.17901 14.8826 3.20943 14.8812 3.24003V7.81252C14.8828 7.84059 14.8866 7.86849 14.8925 7.89596L10.8275 10.4419V9.32815C10.826 9.29808 10.8221 9.26818 10.8156 9.23877C10.8128 9.2219 10.8134 9.20409 10.8091 9.18752C10.7969 9.14196 10.779 9.09816 10.7556 9.05721C10.7478 9.04315 10.7359 9.0319 10.7266 9.01877C10.7098 8.99239 10.6907 8.96751 10.6697 8.9444C10.6569 8.93127 10.6406 8.92221 10.6266 8.91034C10.6057 8.8911 10.5833 8.87354 10.5597 8.85784L10.5556 8.85627L10.5522 8.85378L5.98249 6.23596C5.89972 6.18857 5.806 6.16364 5.71062 6.16364C5.61524 6.16364 5.52151 6.18857 5.43874 6.23596L0.868117 8.85346L0.864679 8.85596L0.860616 8.85752C0.836858 8.87332 0.814392 8.89098 0.793429 8.91034C0.779366 8.9219 0.762179 8.93127 0.750616 8.94409C0.72929 8.96747 0.71005 8.99267 0.693116 9.0194C0.684054 9.03252 0.672492 9.04346 0.664679 9.05721C0.641334 9.09817 0.623373 9.14197 0.611241 9.18752C0.606866 9.20346 0.607491 9.22065 0.604679 9.2369C0.598136 9.26682 0.594163 9.29724 0.592804 9.32784V13.8985C0.592791 13.9967 0.619218 14.093 0.669312 14.1775C0.719405 14.262 0.791315 14.3314 0.877492 14.3785L5.16343 16.7188V22.9806L0.868117 25.4406L0.864679 25.4431L0.860616 25.4447C0.836858 25.4605 0.814392 25.4782 0.793429 25.4975C0.779366 25.5091 0.762179 25.5185 0.750616 25.5313C0.72929 25.5546 0.71005 25.5799 0.693116 25.6066C0.684054 25.6197 0.672492 25.6306 0.664679 25.6444C0.641334 25.6854 0.623373 25.7292 0.611241 25.7747C0.606866 25.7906 0.607491 25.8078 0.604679 25.8241C0.598136 25.854 0.594163 25.8844 0.592804 25.915V30.4856C0.592852 30.5839 0.619374 30.6803 0.66958 30.7648C0.719787 30.8493 0.791823 30.9186 0.878116 30.9656L5.44843 33.4603C5.47412 33.4728 5.50077 33.4833 5.52812 33.4916C5.5428 33.4969 5.55655 33.5047 5.57155 33.5085C5.6625 33.5332 5.75842 33.5332 5.84937 33.5085C5.86437 33.5044 5.87812 33.4966 5.8928 33.4916C5.92015 33.4833 5.9468 33.4728 5.97249 33.4603L9.85312 31.3419L14.8844 34.6916V36.9581C14.8844 37.0563 14.9108 37.1527 14.9609 37.2372C15.011 37.3217 15.0829 37.3911 15.1691 37.4381L19.7394 39.9328C19.7651 39.9453 19.7917 39.9558 19.8191 39.9641C19.8337 39.9694 19.8475 39.9772 19.8625 39.981C19.9534 40.0057 20.0494 40.0057 20.1403 39.981C20.1553 39.9769 20.1691 39.9691 20.1837 39.9641C20.2111 39.9558 20.2377 39.9453 20.2634 39.9328L24.8325 37.4375C24.9187 37.3904 24.9906 37.321 25.0407 37.2366C25.0908 37.1521 25.1172 37.0557 25.1172 36.9575V34.691L30.1484 31.3413L34.0291 33.4597C34.0547 33.4722 34.0814 33.4827 34.1087 33.491C34.1234 33.4963 34.1372 33.5041 34.1522 33.5078C34.2431 33.5326 34.339 33.5326 34.43 33.5078C34.445 33.5038 34.4587 33.496 34.4734 33.491C34.5008 33.4827 34.5274 33.4722 34.5531 33.4597L39.1219 30.9656C39.208 30.9186 39.28 30.8492 39.3301 30.7647C39.3801 30.6802 39.4066 30.5838 39.4066 30.4856V25.9153C39.4051 25.8853 39.4011 25.8554 39.3947 25.826C39.3919 25.8091 39.3925 25.7913 39.3881 25.7747C39.376 25.7291 39.358 25.6853 39.3347 25.6444C39.3269 25.6303 39.315 25.6191 39.3056 25.606C39.2888 25.5796 39.2698 25.5547 39.2487 25.5316C39.2359 25.5185 39.2197 25.5094 39.2056 25.4975C39.1847 25.4783 39.1624 25.4607 39.1387 25.445L39.1347 25.4435L39.1312 25.441L34.8359 22.981V16.7188L39.1216 14.3794C39.2077 14.3323 39.2796 14.2629 39.3297 14.1784C39.3798 14.094 39.4063 13.9976 39.4062 13.8994V9.32815C39.405 9.2981 39.4012 9.2682 39.395 9.23877ZM23.31 32.4528L20 34.2597L16.69 32.4528L16.55 32.3763L20 30.4006L23.45 32.375L23.31 32.4528ZM9.73374 13.5741L6.25718 15.4716V12.1475L9.73374 10.25V13.5741ZM5.7103 23.9278L9.16031 25.9035L9.0203 25.98L5.7103 27.7869L2.4003 25.98L2.2603 25.9035L5.7103 23.9278ZM10.2347 25.2585L6.25718 22.9803V16.7188L9.88031 14.741L14.8828 17.996V21.986L10.2347 25.2585ZM15.9766 7.48784V4.16378L19.4531 6.06253V9.38565L15.9766 7.48784ZM24.0234 7.48784L20.5469 9.38565V6.06253L24.0234 4.1644V7.48784ZM20 15.7119L23.45 17.6875L23.31 17.7641L20 19.571L16.69 17.7641L16.55 17.6875L20 15.7119ZM15.9766 18.621L19.4531 20.5188V23.8438L15.9766 21.9453V18.621ZM20.5469 20.5188L24.0234 18.621V21.9453L20.5469 23.8438V20.5188ZM25.1172 17.996L30.1197 14.74L33.7428 16.7188V22.9806L29.7653 25.2588L25.1172 21.986V17.996ZM33.7422 12.1475V15.4716L30.2662 13.5741V10.25L33.7422 12.1475ZM30.2662 30.1613V26.8369L33.7428 28.7347V32.0588L30.2662 30.1613ZM37.5997 25.98L34.2897 27.7869L30.9794 25.98L30.8394 25.9035L34.2894 23.9278L37.7394 25.9035L37.5997 25.98ZM34.2897 7.34065L37.7397 9.31627L37.5997 9.39284L34.2897 11.1997L30.9794 9.39284L30.8394 9.31627L34.2897 7.34065ZM29.1916 14.0388L24.5522 17.0585L20.5469 14.7647V10.6319L24.2156 8.62877L29.1722 11.7325V13.8981C29.1725 13.9457 29.179 13.9929 29.1916 14.0388ZM20 1.25471L23.4497 3.23065L20.1512 5.03128L20 5.11378L19.8487 5.03128L16.5503 3.23034L20 1.25471ZM15.7844 8.62971L19.4531 10.6328V14.7647L15.4478 17.0585L10.8084 14.0388C10.8209 13.9929 10.8273 13.9457 10.8275 13.8981V11.7325L15.7844 8.62971ZM5.7103 7.34065L9.16031 9.31627L9.0203 9.39284L5.7103 11.1997L2.4003 9.39284L2.2603 9.31627L5.7103 7.34065ZM1.68749 10.25L5.16405 12.1478V15.4716L1.68749 13.5741V10.25ZM1.68749 26.8372L5.16405 28.735V32.0591L1.68749 30.1613V26.8372ZM6.2578 28.735L9.73437 26.8372V30.1613L6.2578 32.0588V28.735ZM10.7972 30.6563C10.8167 30.6013 10.8273 30.5436 10.8284 30.4853V26.1791L15.4662 22.9128L19.4531 25.0891V29.4535L15.1562 31.9135L15.1528 31.916L15.1487 31.9175C15.125 31.9333 15.1025 31.951 15.0816 31.9703C15.0675 31.9819 15.0503 31.9913 15.0387 32.0041C15.0174 32.0275 14.9982 32.0527 14.9812 32.0794C14.9722 32.0925 14.9606 32.1035 14.9528 32.1172C14.9295 32.1582 14.9115 32.202 14.8994 32.2475C14.895 32.2635 14.8956 32.2806 14.8928 32.2969C14.8863 32.3268 14.8823 32.3572 14.8809 32.3878V33.3772L10.7972 30.6563ZM15.9766 34.396V33.3094L19.4531 35.2072V38.5313L15.9766 36.6338V34.396ZM20.5469 38.5313V35.2075L24.0234 33.3097V36.6341L20.5469 38.5313ZM25.1172 32.3878C25.1157 32.3578 25.1118 32.3279 25.1053 32.2985C25.1025 32.2816 25.1031 32.2638 25.0987 32.2472C25.0866 32.2016 25.0687 32.1578 25.0453 32.1169C25.0375 32.1028 25.0256 32.0916 25.0162 32.0785C24.9995 32.0521 24.9804 32.0272 24.9594 32.0041C24.9466 31.991 24.9303 31.9819 24.9162 31.97C24.8954 31.9508 24.873 31.9332 24.8494 31.9175L24.8453 31.916L24.8419 31.9135L20.5469 29.4535V25.0891L24.5337 22.9128L29.1725 26.1791V30.4856C29.1736 30.5439 29.1842 30.6017 29.2037 30.6566L25.1181 33.3775L25.1172 32.3878ZM34.8359 32.0585V28.7347L38.3125 26.8369V30.1613L34.8359 32.0585ZM34.8359 15.4713V12.1475L38.3125 10.25V13.5741L34.8359 15.4713Z" fill="#99E39E"/>
</g>
<defs>
<clipPath id="clip0_23_7636">
<rect width="40" height="40" fill="white"/>
</clipPath>
</defs>
</svg>
