<svg width="40" height="40" viewBox="0 0 40 40" fill="none" xmlns="http://www.w3.org/2000/svg">
<g clip-path="url(#clip0_23_7634)">
<path d="M20 10.4095L24.7496 6.45161H30.9678V0H15.4839V6.45161H20V10.4095ZM16.7742 5.16129V1.29032H29.6774V5.16129H24.2827L21.2903 7.65499V5.16129H16.7742Z" fill="#99E39E"/>
<path d="M18.0645 2.58069H19.3548V3.87101H18.0645V2.58069Z" fill="#99E39E"/>
<path d="M20.6451 2.58069H25.8064V3.87101H20.6451V2.58069Z" fill="#99E39E"/>
<path d="M27.0968 2.58069H28.3871V3.87101H27.0968V2.58069Z" fill="#99E39E"/>
<path d="M32.8418 38.7096L32.3201 33.4869C34.4742 33.1464 36.129 31.2811 36.129 29.0322V20.6451H33.5484V19.7536C33.5484 18.8766 33.0664 18.089 32.2915 17.6852C33.062 16.9773 33.5484 15.9652 33.5484 14.8387V13.5483C33.5484 11.4134 31.8123 9.67737 29.6774 9.67737C27.5425 9.67737 25.8064 11.4134 25.8064 13.5483V14.8387C25.8064 16.5089 26.8715 17.9309 28.3569 18.4727L24.8942 21.9354H21.2761C21.204 20.86 20.4653 19.9225 19.4188 19.6232L16.7742 18.8684V17.7161C17.5639 17.0069 18.0645 15.9819 18.0645 14.8387V13.5483C18.0645 11.4134 16.3284 9.67737 14.1935 9.67737C12.0587 9.67737 10.3226 11.4134 10.3226 13.5483V14.8387C10.3226 15.9812 10.8231 17.0063 11.6129 17.7161V18.869L8.96831 19.6238C7.86637 19.9379 7.09677 20.9586 7.09677 22.1052V24.5161H4.51613V28.387H5.80645V38.7096H0V40H40V38.7096H32.8418ZM27.0968 28.387V25.4284L31.6683 20.8568C31.9988 20.5263 32.1954 20.0825 32.2395 19.6194C32.2451 19.6645 32.2581 19.707 32.2581 19.7536V27.7419C32.2581 28.8089 31.3896 29.6774 30.3226 29.6774H25.1613V28.387H27.0968ZM25.1613 33.5483H28.4485L28.9645 38.7096H25.1613V33.5483ZM29.7451 33.5483H31.0292L31.5452 38.7096H30.2612L29.7451 33.5483ZM33.5484 27.7419V21.9354H34.8387V29.0322C34.8387 30.8108 33.3915 32.258 31.6129 32.258H25.1613V30.9677H30.3226C32.1012 30.9677 33.5484 29.5205 33.5484 27.7419ZM27.0968 14.8387V13.5483C27.0968 12.1251 28.2542 10.9677 29.6774 10.9677C31.1007 10.9677 32.2581 12.1251 32.2581 13.5483V14.8387C32.2581 16.2619 31.1007 17.4193 29.6774 17.4193C28.2542 17.4193 27.0968 16.2619 27.0968 14.8387ZM25.4284 23.2258L29.7329 18.9213C29.8677 18.7865 30.0542 18.7096 30.2445 18.7096C30.6433 18.7096 30.9677 19.0341 30.9677 19.4329C30.9677 19.6232 30.8909 19.8097 30.756 19.9445L26.1845 24.5161H19.3548C18.9989 24.5161 18.7097 24.2269 18.7097 23.8709C18.7097 23.5149 18.9989 23.2258 19.3548 23.2258H25.4284ZM11.6129 13.5483C11.6129 12.1251 12.7703 10.9677 14.1935 10.9677C15.6168 10.9677 16.7742 12.1251 16.7742 13.5483V14.8387C16.7742 16.2619 15.6168 17.4193 14.1935 17.4193C12.7703 17.4193 11.6129 16.2619 11.6129 14.8387V13.5483ZM14.1935 18.7096C14.6465 18.7096 15.0794 18.6271 15.4839 18.4838V19.1768C15.3238 19.4238 14.8793 19.9999 14.1935 19.9999C13.5077 19.9999 13.0633 19.4238 12.9032 19.1768V18.4838C13.3077 18.6271 13.7405 18.7096 14.1935 18.7096ZM8.3871 22.1052C8.3871 21.5316 8.77237 21.0219 9.32271 20.8644L11.9805 20.1052C12.3548 20.5928 13.0831 21.2903 14.1935 21.2903C15.304 21.2903 16.0323 20.5928 16.4066 20.1045L19.0644 20.8637C19.5587 21.0052 19.9033 21.4349 19.9723 21.9348H19.3548C18.2879 21.9348 17.4194 22.8033 17.4194 23.8703C17.4194 24.0974 17.4657 24.3129 17.5381 24.5154H8.3871V22.1052ZM5.80645 25.8064H25.8064V27.0967H5.80645V25.8064ZM7.09677 30.9677H9.03226V29.6774H7.09677V28.387H23.871V29.6774H10.3226V30.9677H23.871V38.7096H22.3343L21.044 36.129H9.92377L8.63344 38.7096H7.09677V30.9677ZM20.8915 38.7096H10.0762L10.7214 37.4193H20.2463L20.8915 38.7096Z" fill="#99E39E"/>
</g>
<defs>
<clipPath id="clip0_23_7634">
<rect width="40" height="40" fill="white"/>
</clipPath>
</defs>
</svg>
