<svg width="44" height="44" viewBox="0 0 44 44" fill="none" xmlns="http://www.w3.org/2000/svg">
<g clip-path="url(#clip0_23_7382)">
<path d="M35.7078 38.3225L34.0649 33.3931C33.4907 31.6721 32.026 30.4018 30.2404 30.0767L25.4977 29.2138V28.8462C26.323 28.3671 27.0412 27.7263 27.6132 26.9676H29.046C30.2198 26.9676 31.1751 26.0124 31.1751 24.8386V16.3225C31.1751 11.2355 27.0362 7.09668 21.9493 7.09668C16.8623 7.09668 12.7235 11.2355 12.7235 16.3225V21.2902C12.7235 22.6585 13.6964 23.8032 14.9866 24.07C15.3847 26.1096 16.6593 27.8356 18.4009 28.8462V29.2138L13.6574 30.0767C11.8726 30.4018 10.4071 31.6721 9.83365 33.3931L9.54978 34.2454L7.13261 31.8282C6.85584 31.5515 6.85584 31.1008 7.13261 30.824L9.93584 28.0215L4.67429 22.76L1.50629 25.928C0.568098 26.8662 0.0514526 28.1138 0.0514526 29.4409C0.0514526 30.768 0.568098 32.0149 1.50629 32.9531L11.0976 42.5444C12.0358 43.4825 13.2834 43.9999 14.6105 43.9999C15.9376 43.9999 17.1845 43.4825 18.1007 42.5656L21.5575 39.3984L20.4795 38.3225H35.7078ZM29.7557 24.8386C29.7557 25.2304 29.4371 25.5483 29.046 25.5483H28.4492C28.655 25.0792 28.8111 24.5845 28.9119 24.07C29.2157 24.0069 29.4953 23.8862 29.7557 23.7344V24.8386ZM29.046 22.5123V20.0682C29.4683 20.3144 29.7557 20.7672 29.7557 21.2902C29.7557 21.8133 29.4683 22.266 29.046 22.5123ZM14.8525 22.5123C14.4302 22.266 14.1428 21.8133 14.1428 21.2902C14.1428 20.7672 14.4302 20.3144 14.8525 20.0682V22.5123ZM14.8525 17.7418V18.5523C14.5998 18.6183 14.3628 18.7176 14.1428 18.8461V16.3225C14.1428 12.0183 17.6451 8.51603 21.9493 8.51603C26.2535 8.51603 29.7557 12.0183 29.7557 16.3225V18.8461C29.5357 18.7176 29.2987 18.6176 29.046 18.5523V17.7418H28.3364C26.2378 17.7418 24.2649 16.9243 22.7803 15.4404L21.9493 14.6093L21.1182 15.4404C19.6336 16.9243 17.6607 17.7418 15.5622 17.7418H14.8525ZM16.2718 22.7096V19.1342C18.403 18.9738 20.3901 18.0946 21.9493 16.612C23.5084 18.0946 25.4955 18.9745 27.6267 19.1342V22.7096C27.6267 23.7443 27.3442 24.7123 26.8588 25.5483H21.9493V26.9676H25.6921C24.6915 27.8484 23.3835 28.387 21.9493 28.387C18.8189 28.387 16.2718 25.84 16.2718 22.7096ZM24.0783 29.4792V29.5125L21.9493 31.6416L19.8202 29.5125V29.4792C20.493 29.6907 21.2076 29.8064 21.9493 29.8064C22.6909 29.8064 23.4055 29.6907 24.0783 29.4792ZM11.1792 33.8416C11.5887 32.6124 12.6355 31.7047 13.9107 31.472L18.8714 30.5707L21.9493 33.6485L25.0264 30.5714L29.9864 31.4727C31.2617 31.7055 32.3084 32.6124 32.7179 33.8423L33.7391 36.9031H19.0602L16.296 34.1389L13.2245 36.9173C12.9569 37.1863 12.4893 37.1863 12.221 36.9173L10.6711 35.3674L11.1792 33.8416ZM4.67358 24.7669L7.92816 28.0215L7.15745 28.7922L3.90287 25.5376L4.67358 24.7669ZM17.1178 41.5423C16.4478 42.2108 15.5565 42.5805 14.6091 42.5805C13.6616 42.5805 12.7703 42.2108 12.0996 41.5409L2.50836 31.9503C1.83842 31.2804 1.46939 30.389 1.46939 29.4416C1.46939 28.4935 1.83842 27.6021 2.50836 26.9322L2.89868 26.5418L6.15326 29.7964L6.12771 29.822C5.2981 30.6523 5.2981 32.0028 6.12771 32.8331L11.2168 37.9222C11.6192 38.3239 12.1536 38.546 12.7227 38.546C13.2919 38.546 13.8263 38.3246 14.2024 37.9471L14.2556 37.8995L17.5251 41.169L17.1178 41.5423ZM18.5726 40.2081L15.3102 36.9457L16.2477 36.0984L19.5044 39.3551L18.5726 40.2081Z" fill="white"/>
<path d="M41.8202 0H31.8847C30.7109 0 29.7557 0.955226 29.7557 2.12903V7.80645C29.7557 8.98026 30.7109 9.93548 31.8847 9.93548H33.7803L33.0465 14.2155L39.8949 9.93548H41.8202C42.994 9.93548 43.9493 8.98026 43.9493 7.80645V2.12903C43.9493 0.955226 42.994 0 41.8202 0ZM42.5299 7.80645C42.5299 8.19748 42.2113 8.51613 41.8202 8.51613H39.4875L34.9804 11.3328L35.4636 8.51613H31.8847C31.4937 8.51613 31.1751 8.19748 31.1751 7.80645V2.12903C31.1751 1.738 31.4937 1.41935 31.8847 1.41935H41.8202C42.2113 1.41935 42.5299 1.738 42.5299 2.12903V7.80645Z" fill="white"/>
<path d="M41.1105 2.83862H32.5944V4.25798H41.1105V2.83862Z" fill="white"/>
<path d="M38.2718 5.67749H32.5944V7.09684H38.2718V5.67749Z" fill="white"/>
<path d="M41.1105 5.67749H39.6912V7.09684H41.1105V5.67749Z" fill="white"/>
<path d="M21.9493 2.12915C12.6766 2.12915 4.6892 8.54322 2.61269 17.4901L1.26785 15.2482L0.0507507 15.9785L2.54527 20.1351L6.70185 17.6406L5.97159 16.4235L4.04836 17.5774C6.05959 9.3927 13.4197 3.54851 21.9493 3.54851C23.8136 3.54851 25.6531 3.82528 27.4166 4.37173L27.8368 3.01625C25.9369 2.42721 23.9562 2.12915 21.9493 2.12915Z" fill="white"/>
<path d="M43.6044 15.7138L39.4478 13.2192L36.954 17.3765L38.1711 18.1068L39.413 16.0367C40.0666 17.9492 40.4009 19.9498 40.4009 22.0001C40.4009 26.2205 38.9389 30.3466 36.2855 33.6175L37.3876 34.5117C40.2462 30.9889 41.8202 26.5449 41.8202 22.0001C41.8202 19.8292 41.4704 17.7094 40.7884 15.6797L42.8741 16.9309L43.6044 15.7138Z" fill="white"/>
</g>
<defs>
<clipPath id="clip0_23_7382">
<rect width="44" height="44" fill="white"/>
</clipPath>
</defs>
</svg>
