<svg width="44" height="44" viewBox="0 0 44 44" fill="none" xmlns="http://www.w3.org/2000/svg">
<g clip-path="url(#clip0_23_7721)">
<path d="M23.5943 22.2749C24.2755 21.9183 24.8174 21.3436 25.1336 20.6427C25.4497 19.9418 25.5217 19.1552 25.338 18.4086C25.1544 17.662 24.7258 16.9984 24.1207 16.5241C23.5156 16.0498 22.7689 15.792 22 15.792C21.2311 15.792 20.4844 16.0498 19.8793 16.5241C19.2742 16.9984 18.8456 17.662 18.662 18.4086C18.4783 19.1552 18.5503 19.9418 18.8664 20.6427C19.1826 21.3436 19.7245 21.9183 20.4057 22.2749C19.4659 22.6056 18.6518 23.2196 18.0754 24.0322C17.4991 24.8448 17.1889 25.8161 17.1875 26.8124C17.1875 26.9947 17.2599 27.1696 17.3889 27.2985C17.5178 27.4275 17.6927 27.4999 17.875 27.4999H26.125C26.3073 27.4999 26.4822 27.4275 26.6111 27.2985C26.7401 27.1696 26.8125 26.9947 26.8125 26.8124C26.8111 25.8161 26.5009 24.8448 25.9246 24.0322C25.3482 23.2196 24.5341 22.6056 23.5943 22.2749ZM22 17.1874C22.4079 17.1874 22.8067 17.3084 23.1459 17.535C23.485 17.7616 23.7494 18.0838 23.9055 18.4606C24.0616 18.8375 24.1025 19.2522 24.0229 19.6523C23.9433 20.0524 23.7469 20.4199 23.4584 20.7083C23.17 20.9968 22.8025 21.1932 22.4024 21.2728C22.0023 21.3524 21.5876 21.3115 21.2107 21.1554C20.8338 20.9993 20.5117 20.7349 20.2851 20.3958C20.0585 20.0566 19.9375 19.6578 19.9375 19.2499C19.9375 18.7029 20.1548 18.1783 20.5416 17.7915C20.9284 17.4047 21.453 17.1874 22 17.1874ZM18.6313 26.1249C18.789 25.3478 19.2106 24.6492 19.8246 24.1474C20.4385 23.6456 21.2071 23.3715 22 23.3715C22.7929 23.3715 23.5615 23.6456 24.1754 24.1474C24.7894 24.6492 25.211 25.3478 25.3688 26.1249H18.6313Z" fill="white"/>
<path d="M36.4375 29.5624C34.8519 29.5612 33.3151 30.1107 32.0898 31.1169L28.7801 27.8073C30.0881 26.2843 30.8422 24.3635 30.9196 22.3574L37.9404 22.0976C38.1362 22.7322 38.5565 23.2738 39.1228 23.6208C39.6891 23.9679 40.3624 24.0967 41.0168 23.9831C41.6711 23.8695 42.2617 23.5214 42.6779 23.0038C43.0941 22.4862 43.3074 21.8347 43.2778 21.1712C43.2483 20.5077 42.978 19.8777 42.5175 19.3991C42.057 18.9205 41.4378 18.6262 40.7759 18.5712C40.1141 18.5162 39.4548 18.7043 38.9216 19.1003C38.3884 19.4963 38.0178 20.073 37.8792 20.7226L30.875 20.9818C30.7249 19.6799 30.2905 18.427 29.6023 17.3117C28.9142 16.1965 27.9892 15.2462 26.893 14.5282L28.2068 12.1398C29.1847 12.4811 30.2551 12.4426 31.206 12.0319C32.1568 11.6211 32.9186 10.8681 33.3404 9.92211C33.7622 8.97612 33.8132 7.90618 33.4833 6.92436C33.1534 5.94254 32.4666 5.1205 31.5591 4.62119C30.6517 4.12187 29.5897 3.98172 28.5838 4.22851C27.5778 4.47529 26.7013 5.09101 26.128 5.95362C25.5546 6.81623 25.3263 7.86276 25.4882 8.8858C25.6502 9.90883 26.1905 10.8337 27.0023 11.4771L25.6878 13.8668C24.1419 13.1589 22.4252 12.91 20.7419 13.1496C19.0587 13.3892 17.4796 14.1073 16.1927 15.2184L12.8831 11.9088C14.0014 10.5411 14.5512 8.79588 14.4188 7.03414C14.2865 5.2724 13.482 3.62893 12.1719 2.44368C10.8618 1.25842 9.14623 0.622057 7.38008 0.666216C5.61392 0.710376 3.93231 1.43168 2.68306 2.68093C1.43381 3.93018 0.712506 5.61179 0.668347 7.37795C0.624187 9.1441 1.26055 10.8597 2.44581 12.1698C3.63106 13.4799 5.27453 14.2843 7.03627 14.4167C8.79801 14.5491 10.5432 13.9992 11.9109 12.8809L15.2206 16.1906C14.3448 17.2017 13.7099 18.3984 13.3637 19.6905C13.0175 20.9826 12.969 22.3364 13.222 23.6499L7.1837 25.2752C6.80094 24.5325 6.15885 23.9561 5.37927 23.6554C4.59969 23.3547 3.73686 23.3507 2.95449 23.644C2.17212 23.9374 1.52465 24.5077 1.13493 25.2468C0.745219 25.9859 0.640375 26.8424 0.840294 27.6536C1.04021 28.4649 1.53099 29.1746 2.21949 29.648C2.908 30.1214 3.74633 30.3256 4.57542 30.2219C5.40451 30.1181 6.16667 29.7136 6.71729 29.0852C7.26791 28.4567 7.56867 27.648 7.56251 26.8124C7.56251 26.7437 7.54601 26.6749 7.5412 26.6062L13.5836 24.9796C14.2793 26.9326 15.6297 28.5845 17.4054 29.6546L15.95 32.5599C14.7938 32.1727 13.5337 32.2378 12.4236 32.7422C11.3134 33.2466 10.4355 34.1528 9.96653 35.2784C9.49758 36.404 9.47242 37.6654 9.89611 38.8088C10.3198 39.9522 11.1609 40.8927 12.2501 41.441C13.3392 41.9892 14.5957 42.1045 15.7664 41.7637C16.9372 41.4229 17.9354 40.6512 18.5602 39.604C19.1849 38.5569 19.3898 37.3119 19.1336 36.1197C18.8774 34.9276 18.1791 33.8767 17.1793 33.1787L18.6313 30.2733C20.1496 30.8958 21.8106 31.0857 23.4302 30.822C25.0499 30.5583 26.5649 29.8513 27.8073 28.7794L31.117 32.089C30.1304 33.2977 29.5846 34.8061 29.5692 36.3662C29.5538 37.9263 30.0698 39.4452 31.0322 40.6731C31.9947 41.901 33.3464 42.7648 34.865 43.1225C36.3836 43.4802 37.9787 43.3105 39.388 42.6412C40.7974 41.972 41.937 40.8431 42.6195 39.4401C43.3021 38.0372 43.4869 36.4437 43.1435 34.9218C42.8002 33.3999 41.9492 32.0401 40.7304 31.0661C39.5116 30.0921 37.9977 29.5618 36.4375 29.5624ZM40.5625 19.9374C40.8345 19.9374 41.1003 20.0181 41.3264 20.1692C41.5525 20.3203 41.7288 20.535 41.8328 20.7863C41.9369 21.0375 41.9641 21.314 41.9111 21.5807C41.858 21.8474 41.7271 22.0924 41.5348 22.2847C41.3425 22.477 41.0975 22.608 40.8308 22.661C40.564 22.7141 40.2876 22.6868 40.0363 22.5828C39.7851 22.4787 39.5703 22.3025 39.4192 22.0764C39.2682 21.8502 39.1875 21.5844 39.1875 21.3124C39.1875 20.9478 39.3324 20.598 39.5902 20.3402C39.8481 20.0823 40.1978 19.9374 40.5625 19.9374ZM29.5625 5.49994C30.1064 5.49994 30.6381 5.66123 31.0903 5.9634C31.5426 6.26558 31.895 6.69507 32.1032 7.19756C32.3113 7.70006 32.3658 8.25299 32.2597 8.78644C32.1536 9.31989 31.8916 9.80989 31.5071 10.1945C31.1225 10.5791 30.6325 10.841 30.099 10.9471C29.5656 11.0532 29.0126 10.9988 28.5101 10.7906C28.0076 10.5825 27.5781 10.23 27.276 9.77776C26.9738 9.32553 26.8125 8.79384 26.8125 8.24994C26.8125 7.5206 27.1022 6.82112 27.618 6.3054C28.1337 5.78967 28.8332 5.49994 29.5625 5.49994ZM4.12501 28.8749C3.71709 28.8749 3.31832 28.754 2.97915 28.5273C2.63997 28.3007 2.37562 27.9786 2.21951 27.6017C2.0634 27.2249 2.02256 26.8102 2.10214 26.4101C2.18172 26.01 2.37816 25.6425 2.6666 25.354C2.95505 25.0656 3.32255 24.8692 3.72264 24.7896C4.12272 24.71 4.53742 24.7508 4.9143 24.9069C5.29117 25.063 5.61329 25.3274 5.83992 25.6666C6.06655 26.0058 6.18751 26.4045 6.18751 26.8124C6.18751 27.3594 5.97021 27.8841 5.58342 28.2708C5.19663 28.6576 4.67202 28.8749 4.12501 28.8749ZM17.875 37.1249C17.875 37.8048 17.6734 38.4694 17.2957 39.0347C16.918 39.6 16.3811 40.0406 15.753 40.3008C15.1249 40.561 14.4337 40.629 13.7669 40.4964C13.1001 40.3638 12.4876 40.0364 12.0068 39.5556C11.5261 39.0749 11.1987 38.4624 11.0661 37.7956C10.9334 37.1288 11.0015 36.4376 11.2617 35.8095C11.5219 35.1813 11.9624 34.6445 12.5277 34.2668C13.093 33.889 13.7576 33.6874 14.4375 33.6874C15.3489 33.6885 16.2226 34.051 16.867 34.6955C17.5114 35.3399 17.8739 36.2136 17.875 37.1249ZM2.06251 7.56244C2.06038 6.6688 2.27602 5.7881 2.6908 4.99654C3.10557 4.20499 3.70698 3.52642 4.44297 3.01956C5.17897 2.51269 6.02738 2.19281 6.91481 2.08757C7.80223 1.98233 8.70194 2.09492 9.53607 2.41558C10.3702 2.73625 11.1136 3.25534 11.702 3.92793C12.2904 4.60053 12.7061 5.40637 12.913 6.27572C13.1199 7.14507 13.1119 8.05176 12.8896 8.91732C12.6674 9.78288 12.2375 10.5812 11.6373 11.2433C11.669 11.166 11.6861 11.0835 11.6875 10.9999C11.6892 10.458 11.5834 9.92116 11.3762 9.42043C11.169 8.9197 10.8644 8.46507 10.4803 8.08288C10.2063 7.80893 9.89526 7.57474 9.55626 7.38713C9.92784 6.99756 10.1769 6.50749 10.2725 5.97769C10.3682 5.44789 10.3062 4.90167 10.0943 4.40676C9.88246 3.91185 9.52996 3.49001 9.08057 3.19357C8.63118 2.89712 8.10466 2.7391 7.56629 2.7391C7.02793 2.7391 6.50141 2.89712 6.05202 3.19357C5.60262 3.49001 5.25013 3.91185 5.03824 4.40676C4.82635 4.90167 4.76439 5.44789 4.86004 5.97769C4.9557 6.50749 5.20475 6.99756 5.57632 7.38713C4.92905 7.74273 4.38912 8.26557 4.0129 8.90107C3.63668 9.53657 3.43796 10.2614 3.43751 10.9999C3.43891 11.0826 3.45521 11.1644 3.48564 11.2413C2.57051 10.2345 2.06316 8.92297 2.06251 7.56244ZM7.56251 6.87494C7.29056 6.87494 7.02472 6.7943 6.7986 6.64321C6.57248 6.49213 6.39625 6.27738 6.29218 6.02613C6.18811 5.77488 6.16088 5.49842 6.21393 5.23169C6.26699 4.96497 6.39794 4.71997 6.59024 4.52767C6.78254 4.33537 7.02754 4.20442 7.29426 4.15136C7.56099 4.09831 7.83745 4.12554 8.0887 4.22961C8.33995 4.33368 8.5547 4.50992 8.70578 4.73603C8.85687 4.96215 8.93751 5.22799 8.93751 5.49994C8.93751 5.86462 8.79265 6.21435 8.53478 6.47221C8.27692 6.73008 7.92718 6.87494 7.56251 6.87494ZM7.56251 8.24994C8.17218 8.24994 8.76456 8.45253 9.24654 8.82587C9.72853 9.19921 10.0728 9.72214 10.2252 10.3124H4.89914C5.05233 9.72243 5.39689 9.19989 5.87884 8.82667C6.3608 8.45344 6.95294 8.25061 7.56251 8.24994ZM3.88439 11.6393C3.96101 11.6698 4.04255 11.6861 4.12501 11.6874H11C11.0837 11.6863 11.1665 11.6695 11.2441 11.6379C10.2378 12.5534 8.92633 13.0607 7.56595 13.0607C6.20557 13.0607 4.89408 12.5534 3.88782 11.6379L3.88439 11.6393ZM14.4375 21.9999C14.4375 20.5042 14.881 19.0421 15.712 17.7984C16.543 16.5548 17.7241 15.5855 19.106 15.0131C20.4878 14.4407 22.0084 14.291 23.4754 14.5828C24.9424 14.8746 26.2899 15.5948 27.3475 16.6524C28.4051 17.7101 29.1254 19.0576 29.4172 20.5246C29.709 21.9916 29.5592 23.5121 28.9869 24.894C28.4145 26.2759 27.4452 27.457 26.2015 28.2879C24.9579 29.1189 23.4957 29.5624 22 29.5624C19.995 29.5601 18.0729 28.7626 16.6551 27.3448C15.2374 25.9271 14.4399 24.0049 14.4375 21.9999ZM32.7594 40.5143C32.836 40.5448 32.9175 40.5611 33 40.5624H39.875C39.9587 40.5613 40.0415 40.5445 40.1191 40.5129C39.1128 41.4284 37.8013 41.9357 36.441 41.9357C35.0806 41.9357 33.7691 41.4284 32.7628 40.5129L32.7594 40.5143ZM36.4375 35.7499C36.1656 35.7499 35.8997 35.6693 35.6736 35.5182C35.4475 35.3671 35.2712 35.1524 35.1672 34.9011C35.0631 34.6499 35.0359 34.3734 35.0889 34.1067C35.142 33.84 35.2729 33.595 35.4652 33.4027C35.6575 33.2104 35.9025 33.0794 36.1693 33.0264C36.436 32.9733 36.7125 33.0005 36.9637 33.1046C37.2149 33.2087 37.4297 33.3849 37.5808 33.611C37.7319 33.8371 37.8125 34.103 37.8125 34.3749C37.8125 34.7396 37.6676 35.0894 37.4098 35.3472C37.1519 35.6051 36.8022 35.7499 36.4375 35.7499ZM36.4375 37.1249C37.0472 37.1249 37.6396 37.3275 38.1215 37.7009C38.6035 38.0742 38.9478 38.5971 39.1002 39.1874H33.7741C33.9273 38.5974 34.2719 38.0749 34.7538 37.7017C35.2358 37.3284 35.8279 37.1256 36.4375 37.1249ZM40.5116 40.1183C40.5436 40.0411 40.5608 39.9585 40.5625 39.8749C40.5642 39.333 40.4584 38.7962 40.2512 38.2954C40.044 37.7947 39.7395 37.3401 39.3553 36.9579C39.0813 36.6839 38.7703 36.4497 38.4313 36.2621C38.8028 35.8726 39.0519 35.3825 39.1475 34.8527C39.2432 34.3229 39.1812 33.7767 38.9693 33.2818C38.7575 32.7868 38.405 32.365 37.9556 32.0686C37.5062 31.7721 36.9797 31.6141 36.4413 31.6141C35.9029 31.6141 35.3764 31.7721 34.927 32.0686C34.4776 32.365 34.1251 32.7868 33.9132 33.2818C33.7014 33.7767 33.6394 34.3229 33.735 34.8527C33.8307 35.3825 34.0798 35.8726 34.4513 36.2621C33.8041 36.6177 33.2641 37.1406 32.8879 37.7761C32.5117 38.4116 32.313 39.1364 32.3125 39.8749C32.3139 39.9576 32.3302 40.0394 32.3606 40.1163C31.6457 39.3272 31.1752 38.3476 31.0062 37.2964C30.8372 36.2452 30.977 35.1675 31.4085 34.1941C31.8401 33.2208 32.5449 32.3936 33.4374 31.813C34.3299 31.2324 35.3717 30.9234 36.4365 30.9234C37.5012 30.9234 38.5431 31.2324 39.4356 31.813C40.3281 32.3936 41.0329 33.2208 41.4644 34.1941C41.896 35.1675 42.0358 36.2452 41.8667 37.2964C41.6977 38.3476 41.2272 39.3272 40.5123 40.1163L40.5116 40.1183Z" fill="white"/>
</g>
<defs>
<clipPath id="clip0_23_7721">
<rect width="44" height="44" fill="white"/>
</clipPath>
</defs>
</svg>
