<svg width="44" height="44" viewBox="0 0 44 44" fill="none" xmlns="http://www.w3.org/2000/svg">
<g clip-path="url(#clip0_159_563)">
<path d="M35.7078 38.3226L34.0649 33.3932C33.4908 31.6722 32.026 30.4019 30.2405 30.0769L25.4977 29.2139V28.8463C26.3231 28.3673 27.0413 27.7264 27.6133 26.9678H29.0461C30.2199 26.9678 31.1751 26.0125 31.1751 24.8387V16.3226C31.1751 11.2356 27.0363 7.0968 21.9493 7.0968C16.8624 7.0968 12.7235 11.2356 12.7235 16.3226V21.2903C12.7235 22.6586 13.6965 23.8033 14.9867 24.0702C15.3848 26.1098 16.6594 27.8357 18.4009 28.8463V29.2139L13.6575 30.0769C11.8726 30.4019 10.4071 31.6722 9.83371 33.3932L9.54984 34.2455L7.13268 31.8283C6.8559 31.5516 6.8559 31.1009 7.13268 30.8242L9.9359 28.0216L4.67435 22.7601L1.50635 25.9281C0.568159 26.8663 0.0515137 28.1139 0.0515137 29.441C0.0515137 30.7681 0.568159 32.015 1.50635 32.9532L11.0976 42.5445C12.0358 43.4827 13.2835 44 14.6105 44C15.9376 44 17.1845 43.4827 18.1007 42.5658L21.5576 39.3985L20.4796 38.3226H35.7078ZM29.7558 24.8387C29.7558 25.2305 29.4371 25.5484 29.0461 25.5484H28.4493C28.6551 25.0793 28.8112 24.5847 28.912 24.0702C29.2157 24.007 29.4953 23.8864 29.7558 23.7345V24.8387ZM29.0461 22.5124V20.0683C29.4684 20.3145 29.7558 20.7673 29.7558 21.2903C29.7558 21.8134 29.4684 22.2662 29.0461 22.5124ZM14.8525 22.5124C14.4303 22.2662 14.1429 21.8134 14.1429 21.2903C14.1429 20.7673 14.4303 20.3145 14.8525 20.0683V22.5124ZM14.8525 17.742V18.5524C14.5999 18.6184 14.3629 18.7178 14.1429 18.8462V16.3226C14.1429 12.0184 17.6451 8.51616 21.9493 8.51616C26.2535 8.51616 29.7558 12.0184 29.7558 16.3226V18.8462C29.5358 18.7178 29.2987 18.6177 29.0461 18.5524V17.742H28.3364C26.2379 17.742 24.265 16.9244 22.7804 15.4405L21.9493 14.6094L21.1183 15.4405C19.6336 16.9244 17.6607 17.742 15.5622 17.742H14.8525ZM16.2719 22.7097V19.1343C18.4031 18.974 20.3902 18.0947 21.9493 16.6122C23.5085 18.0947 25.4956 18.9747 27.6267 19.1343V22.7097C27.6267 23.7444 27.3443 24.7124 26.8589 25.5484H21.9493V26.9678H25.6922C24.6915 27.8485 23.3836 28.3871 21.9493 28.3871C18.8189 28.3871 16.2719 25.8401 16.2719 22.7097ZM24.0784 29.4793V29.5127L21.9493 31.6417L19.8203 29.5127V29.4793C20.4931 29.6908 21.2077 29.8065 21.9493 29.8065C22.6909 29.8065 23.4056 29.6908 24.0784 29.4793ZM11.1793 33.8417C11.5887 32.6125 12.6355 31.7049 13.9108 31.4721L18.8715 30.5708L21.9493 33.6487L25.0265 30.5715L29.9864 31.4728C31.2617 31.7056 32.3085 32.6125 32.718 33.8424L33.7392 36.9033H19.0602L16.296 34.1391L13.2245 36.9174C12.957 37.1864 12.4893 37.1864 12.2211 36.9174L10.6711 35.3675L11.1793 33.8417ZM4.67364 24.7671L7.92822 28.0216L7.15751 28.7923L3.90293 25.5378L4.67364 24.7671ZM17.1178 41.5424C16.4479 42.2109 15.5565 42.5807 14.6091 42.5807C13.6617 42.5807 12.7704 42.2109 12.0997 41.541L2.50842 31.9504C1.83848 31.2805 1.46945 30.3891 1.46945 29.4417C1.46945 28.4936 1.83848 27.6022 2.50842 26.9323L2.89874 26.542L6.15332 29.7965L6.12777 29.8221C5.29816 30.6524 5.29816 32.0029 6.12777 32.8333L11.2169 37.9223C11.6193 38.324 12.1536 38.5462 12.7228 38.5462C13.292 38.5462 13.8264 38.3247 14.2025 37.9472L14.2557 37.8996L17.5252 41.1691L17.1178 41.5424ZM18.5727 40.2082L15.3103 36.9458L16.2478 36.0985L19.5045 39.3552L18.5727 40.2082Z" fill="#99E39E"/>
<path d="M41.8201 0H31.8846C30.7108 0 29.7556 0.955226 29.7556 2.12903V7.80645C29.7556 8.98026 30.7108 9.93548 31.8846 9.93548H33.7802L33.0464 14.2155L39.8948 9.93548H41.8201C42.9939 9.93548 43.9492 8.98026 43.9492 7.80645V2.12903C43.9492 0.955226 42.9939 0 41.8201 0ZM42.5298 7.80645C42.5298 8.19748 42.2112 8.51613 41.8201 8.51613H39.4874L34.9803 11.3328L35.4636 8.51613H31.8846C31.4936 8.51613 31.175 8.19748 31.175 7.80645V2.12903C31.175 1.738 31.4936 1.41935 31.8846 1.41935H41.8201C42.2112 1.41935 42.5298 1.738 42.5298 2.12903V7.80645Z" fill="#99E39E"/>
<path d="M41.1106 2.83875H32.5945V4.2581H41.1106V2.83875Z" fill="#99E39E"/>
<path d="M38.2719 5.67737H32.5945V7.09672H38.2719V5.67737Z" fill="#99E39E"/>
<path d="M41.1105 5.67737H39.6912V7.09672H41.1105V5.67737Z" fill="#99E39E"/>
<path d="M21.9493 2.12903C12.6767 2.12903 4.68923 8.54309 2.61272 17.49L1.26788 15.2481L0.0507812 15.9784L2.5453 20.135L6.70188 17.6404L5.97162 16.4234L4.04839 17.5773C6.05962 9.39258 13.4197 3.54838 21.9493 3.54838C23.8136 3.54838 25.6531 3.82516 27.4167 4.37161L27.8368 3.01613C25.937 2.42709 23.9563 2.12903 21.9493 2.12903Z" fill="#99E39E"/>
<path d="M43.6043 15.7136L39.4477 13.2191L36.9539 17.3764L38.171 18.1067L39.4129 16.0365C40.0666 17.9491 40.4008 19.9497 40.4008 22C40.4008 26.2204 38.9389 30.3465 36.2854 33.6174L37.3875 34.5116C40.2461 30.9887 41.8202 26.5447 41.8202 22C41.8202 19.8291 41.4703 17.7092 40.7883 15.6796L42.874 16.9307L43.6043 15.7136Z" fill="#99E39E"/>
</g>
<defs>
<clipPath id="clip0_159_563">
<rect width="44" height="44" fill="white"/>
</clipPath>
</defs>
</svg>
