<svg width="44" height="44" viewBox="0 0 44 44" fill="none" xmlns="http://www.w3.org/2000/svg">
<g clip-path="url(#clip0_159_547)">
<path d="M40.3332 0.773438H27.1334C25.1092 0.775787 23.469 2.41599 23.4666 4.44022V8.10666H8.79987V6.64001C8.79987 4.20993 6.83002 2.24008 4.39993 2.24008C1.96985 2.24008 0 4.20993 0 6.64001V38.9069C0.00234986 41.3359 1.97086 43.3044 4.39993 43.3068H36.6668C39.0959 43.3044 41.0644 41.3359 41.0667 38.9069V37.3667C42.7727 37.0159 43.9977 35.515 44 33.7734V4.44022C43.9977 2.41599 42.3575 0.775787 40.3332 0.773438V0.773438ZM27.1334 2.24008H40.3332C41.5484 2.24008 42.5334 3.22501 42.5334 4.44022V6.64001H24.9333V4.44022C24.9333 3.22501 25.9182 2.24008 27.1334 2.24008ZM42.5334 27.9069H24.9333V8.10666H42.5334V27.9069ZM23.4666 16.5446L15.4463 13.2401H23.4666V16.5446ZM22.2749 17.64L12.559 21.6435C12.5009 21.5404 12.469 21.425 12.4666 21.3068V13.9736C12.469 13.8554 12.5009 13.7396 12.559 13.6369L22.2749 17.64ZM23.4666 18.7357V22.0399H15.4463L23.4666 18.7357ZM4.39993 3.70673C6.01999 3.70673 7.33322 5.01996 7.33322 6.64001V32.7029C5.66751 31.197 3.13235 31.197 1.46664 32.7029V6.64001C1.46664 5.01996 2.77988 3.70673 4.39993 3.70673ZM36.6668 41.8401H4.39993C2.77988 41.8401 1.46664 40.5269 1.46664 38.9069V35.9736C1.46664 34.3535 2.77988 33.0399 4.39993 33.0399C6.01999 33.0399 7.33322 34.3535 7.33322 35.9736C7.33322 36.3784 7.66153 36.7067 8.06671 36.7067C8.47156 36.7067 8.79987 36.3784 8.79987 35.9736V9.5733H23.4666V11.7734H13.2001C12.8087 11.7755 12.425 11.8829 12.0897 12.085C12.0803 12.085 12.0722 12.0954 12.0625 12.0997C12.0078 12.1336 11.954 12.1679 11.9027 12.2061C11.8788 12.2233 11.856 12.2417 11.8345 12.2619C11.3095 12.6751 11.0023 13.3055 11 13.9736V21.3068C11.0023 21.9829 11.3169 22.62 11.852 23.0329C11.901 23.0816 11.9567 23.1229 12.0172 23.1561C12.3696 23.3844 12.7802 23.5059 13.2001 23.5069H23.4666V25.7067H19.0667C18.6615 25.7067 18.3332 26.035 18.3332 26.4402C18.3332 26.8451 18.6615 27.1734 19.0667 27.1734H23.4666V29.3735H11.7335C11.3283 29.3735 11 29.7018 11 30.1067C11 30.5118 11.3283 30.8401 11.7335 30.8401H23.4666V33.7734C23.469 35.7973 25.1092 37.4375 27.1334 37.4402H39.6001V38.9069C39.6001 39.6847 39.2909 40.4309 38.7407 40.9811C38.1908 41.531 37.4446 41.8401 36.6668 41.8401ZM40.3332 35.9736H27.1334C25.9182 35.9736 24.9333 34.9883 24.9333 33.7734V29.3735H42.5334V33.7734C42.5334 34.9883 41.5484 35.9736 40.3332 35.9736Z" fill="#99E39E"/>
<path d="M32.2666 5.17343H35.2002C35.6051 5.17343 35.9334 4.84512 35.9334 4.44028C35.9334 4.0351 35.6051 3.70679 35.2002 3.70679H32.2666C31.8618 3.70679 31.5334 4.0351 31.5334 4.44028C31.5334 4.84512 31.8618 5.17343 32.2666 5.17343Z" fill="#99E39E"/>
<path d="M34.4667 30.1067H33.0001C32.1901 30.1067 31.5334 30.7633 31.5334 31.5733V33.04C31.5334 33.85 32.1901 34.507 33.0001 34.507H34.4667C35.2768 34.507 35.9334 33.85 35.9334 33.04V31.5733C35.9334 30.7633 35.2768 30.1067 34.4667 30.1067ZM33.0001 33.04V31.5733H34.4667V33.04H33.0001Z" fill="#99E39E"/>
<path d="M26.8944 18.7296C26.9044 18.74 26.9162 18.7474 26.9273 18.7568C27.1891 18.9814 27.5218 19.1053 27.8665 19.1066H39.6C39.9455 19.1049 40.2795 18.9804 40.5417 18.7555C40.5517 18.7467 40.5621 18.7393 40.5722 18.7296C40.8854 18.454 41.0653 18.0572 41.0667 17.64V11.0399C41.0653 10.5904 40.8569 10.1667 40.5014 9.89148L40.4822 9.87537C40.2291 9.68066 39.9193 9.57458 39.6 9.57324H27.8665C27.548 9.57526 27.2388 9.68201 26.9867 9.87704L26.9713 9.88947C26.6131 10.1641 26.4023 10.5887 26.3999 11.0399V17.64C26.4012 18.0572 26.5812 18.454 26.8944 18.7296ZM39.6 17.0642L35.1407 14.3401L39.6 11.6166V17.0642ZM37.7299 17.64H29.7367L33.7335 15.1995L37.7299 17.64ZM33.7335 13.4807L29.7367 11.0399H37.7299L33.7335 13.4807ZM32.3259 14.3401L27.8665 17.0636V11.6166L32.3259 14.3401Z" fill="#99E39E"/>
<path d="M27.8665 22.0399H30.7997C31.2049 22.0399 31.5332 21.7116 31.5332 21.3067C31.5332 20.9016 31.2049 20.5732 30.7997 20.5732H27.8665C27.4616 20.5732 27.1333 20.9016 27.1333 21.3067C27.1333 21.7116 27.4616 22.0399 27.8665 22.0399Z" fill="#99E39E"/>
<path d="M40.3332 20.5732H33.7335C33.3283 20.5732 33 20.9016 33 21.3067C33 21.7116 33.3283 22.0399 33.7335 22.0399H40.3332C40.7384 22.0399 41.0667 21.7116 41.0667 21.3067C41.0667 20.9016 40.7384 20.5732 40.3332 20.5732Z" fill="#99E39E"/>
<path d="M40.3331 23.507H27.8665C27.4616 23.507 27.1333 23.8353 27.1333 24.2401C27.1333 24.6453 27.4616 24.9736 27.8665 24.9736H40.3331C40.7383 24.9736 41.0666 24.6453 41.0666 24.2401C41.0666 23.8353 40.7383 23.507 40.3331 23.507Z" fill="#99E39E"/>
<path d="M11.7335 27.1734H15.3999C15.8051 27.1734 16.1334 26.8451 16.1334 26.4403C16.1334 26.0351 15.8051 25.7068 15.3999 25.7068H11.7335C11.3283 25.7068 11 26.0351 11 26.4403C11 26.8451 11.3283 27.1734 11.7335 27.1734Z" fill="#99E39E"/>
</g>
<defs>
<clipPath id="clip0_159_547">
<rect width="44" height="44" fill="white"/>
</clipPath>
</defs>
</svg>
