<svg width="44" height="44" viewBox="0 0 44 44" fill="none" xmlns="http://www.w3.org/2000/svg">
<g clip-path="url(#clip0_159_534)">
<path d="M16.0162 32.2078L22.0002 28.8638L27.9842 32.2078C28.2482 32.3838 28.6002 32.3838 28.9522 32.1198C29.2162 31.9438 29.3922 31.5918 29.3042 31.2398L28.1602 24.1998L33.0882 19.1838C33.3522 18.9198 33.4402 18.5678 33.2642 18.3038C33.1762 17.9518 32.9122 17.7758 32.5602 17.6878L25.7842 16.7198L22.7922 10.2958C22.6162 9.94382 22.3522 9.76782 22.0002 9.76782C21.6482 9.76782 21.3842 9.94382 21.2082 10.2958L18.2162 16.7198L11.4402 17.6878C11.0882 17.7758 10.8242 17.9518 10.7362 18.3038C10.6482 18.6558 10.7362 18.9198 10.9122 19.1838L15.8402 24.1998L14.6962 31.2398C14.6082 31.5918 14.7842 31.9438 15.0482 32.1198C15.3122 32.3838 15.6642 32.3838 16.0162 32.2078ZM13.3762 19.1838L18.9202 18.3038C19.1842 18.3038 19.4482 18.0398 19.6242 17.7758L22.0882 12.5838L24.5522 17.7758C24.6402 18.0398 24.9042 18.2158 25.2562 18.3038L30.8002 19.1838L26.7522 23.3198C26.5762 23.4958 26.4882 23.7598 26.4882 24.1118L27.4562 29.8318L22.6162 27.1918C22.4402 27.1038 22.3522 27.1038 22.1762 27.1038C22.0002 27.1038 21.9122 27.1038 21.7362 27.1918L16.8962 29.8318L17.8642 24.1118C17.9522 23.8478 17.8642 23.5838 17.6002 23.3198L13.3762 19.1838Z" fill="#99E39E"/>
<path d="M43.0322 34.144C42.9442 33.792 42.6802 33.616 42.3282 33.528L38.4562 32.912L36.6962 29.216C36.5202 28.864 36.2562 28.688 35.9042 28.688C35.5522 28.688 35.2882 28.864 35.1122 29.216L33.3522 32.912L29.4802 33.528C29.1282 33.616 28.8642 33.792 28.7762 34.144C28.6882 34.496 28.7762 34.76 28.9522 35.024L31.7682 37.928L31.0642 42.064C30.9762 42.416 31.1522 42.768 31.4162 42.944C31.6802 43.12 32.0322 43.12 32.3842 43.032L35.9042 41.096L39.4242 43.032C39.6882 43.208 40.0402 43.208 40.3922 42.944C40.6562 42.768 40.8322 42.416 40.7442 42.064L40.0402 37.928L42.8562 35.024C43.1202 34.848 43.2082 34.496 43.0322 34.144ZM38.4562 37.048C38.2802 37.224 38.1922 37.488 38.1922 37.84L38.6322 40.656L36.3442 39.336C36.1682 39.248 36.0802 39.248 35.9042 39.248C35.7282 39.248 35.6402 39.248 35.4642 39.336L33.1762 40.656L33.6162 37.84C33.7042 37.576 33.6162 37.312 33.3522 37.048L31.4162 35.024L34.0562 34.584C34.3202 34.584 34.5842 34.32 34.7602 34.056L35.9042 31.592L37.0482 34.056C37.1362 34.32 37.4002 34.496 37.7522 34.584L40.3922 35.024L38.4562 37.048Z" fill="#99E39E"/>
<path d="M15.2241 34.144C15.1361 33.792 14.8721 33.616 14.5201 33.528L10.6481 32.912L8.88812 29.216C8.71212 28.864 8.44812 28.688 8.09612 28.688C7.74412 28.688 7.48012 28.864 7.30412 29.216L5.54412 32.912L1.67212 33.528C1.32012 33.616 1.05612 33.792 0.968117 34.144C0.880117 34.496 0.968117 34.76 1.14412 35.024L3.96012 37.928L3.25612 42.064C3.16812 42.416 3.34412 42.768 3.60812 42.944C3.87212 43.12 4.22412 43.12 4.57612 43.032L8.09612 41.096L11.6161 43.032C11.8801 43.208 12.2321 43.208 12.5841 42.944C12.8481 42.768 13.0241 42.416 12.9361 42.064L12.2321 37.928L15.0481 35.024C15.3121 34.848 15.4001 34.496 15.2241 34.144ZM10.6481 37.048C10.4721 37.224 10.3841 37.488 10.3841 37.84L10.8241 40.656L8.53612 39.336C8.27212 39.16 7.92012 39.16 7.65612 39.336L5.36812 40.656L5.80812 37.84C5.89612 37.576 5.80812 37.312 5.54412 37.048L3.60812 35.024L6.24812 34.584C6.51212 34.584 6.77612 34.32 6.95212 34.056L8.09612 31.68L9.24012 34.144C9.32812 34.408 9.59212 34.584 9.94412 34.672L12.5841 35.112L10.6481 37.048Z" fill="#99E39E"/>
<path d="M22.0001 7.56788C22.5281 7.56788 22.8801 7.21588 22.8801 6.68788V1.75988C22.8801 1.23188 22.5281 0.879883 22.0001 0.879883C21.4721 0.879883 21.1201 1.23188 21.1201 1.75988V6.68788C21.1201 7.21588 21.4721 7.56788 22.0001 7.56788Z" fill="#99E39E"/>
<path d="M29.744 8.18385L32.912 4.66385C33.264 4.31185 33.176 3.78385 32.824 3.43185C32.472 3.07985 31.944 3.16785 31.592 3.51985L28.424 7.03985C28.072 7.39185 28.16 7.91985 28.512 8.27185C28.864 8.53585 29.392 8.53585 29.744 8.18385Z" fill="#99E39E"/>
<path d="M14.7841 8.18397C15.1361 8.53597 15.6641 8.53597 16.0161 8.18397C16.3681 7.83197 16.3681 7.30397 16.0161 6.95197L12.4081 3.43197C12.0561 3.07997 11.5281 3.07997 11.1761 3.43197C10.8241 3.78397 10.8241 4.31197 11.1761 4.66397L14.7841 8.18397Z" fill="#99E39E"/>
</g>
<defs>
<clipPath id="clip0_159_534">
<rect width="44" height="44" fill="white"/>
</clipPath>
</defs>
</svg>
