<svg width="44" height="44" viewBox="0 0 44 44" fill="none" xmlns="http://www.w3.org/2000/svg">
<g clip-path="url(#clip0_159_515)">
<path d="M33.5991 37.8147C33.162 38.0528 32.7188 38.2986 32.27 38.5474C28.4726 40.6529 24.1684 43.0394 20.0316 42.6699L5.38166 41.3621C5.36259 41.3604 5.34342 41.3595 5.32426 41.3595H1.29155V34.1096H5.32417C5.47688 34.1096 5.6247 34.0555 5.74123 33.9569C5.75266 33.9473 6.90671 32.9776 8.66362 32.065C8.98013 31.9006 9.10336 31.5107 8.93905 31.1942C8.77456 30.8777 8.38484 30.7543 8.06824 30.9188C6.58685 31.6884 5.5122 32.4898 5.09575 32.818H0.64582C0.28918 32.818 0 33.1072 0 33.4639V42.0054C0 42.362 0.289094 42.6512 0.64582 42.6512H5.29538L19.9167 43.9565C20.247 43.986 20.5764 44.0001 20.906 44.0001C25.0991 44.0001 29.225 41.7126 32.8963 39.6771C33.3423 39.4299 33.7827 39.1857 34.217 38.9489C34.5302 38.7782 34.6458 38.386 34.4751 38.0729C34.3045 37.7595 33.9124 37.644 33.5991 37.8147Z" fill="#99E39E"/>
<path d="M43.5014 30.6613C42.8147 29.7511 41.6184 29.4368 40.5859 29.869C40.5595 29.456 40.4197 29.0536 40.1747 28.7107C39.529 27.8068 38.3014 27.5155 37.3192 28.0332L35.7833 28.8427C35.7637 28.482 35.6573 28.1271 35.4676 27.8136C34.8549 26.8007 33.56 26.449 32.5198 27.0128L31.3718 27.6352C31.3511 27.1889 31.1999 26.7539 30.9302 26.3867C30.257 25.4706 29.0383 25.1889 28.0322 25.7166L19.7446 30.0633C18.8126 29.7055 15.8415 28.7377 12.3703 29.384C11.7715 29.4955 11.1545 29.6568 10.5364 29.8634C10.1982 29.9765 10.0157 30.3424 10.1287 30.6806C10.2419 31.0189 10.6079 31.2013 10.9459 31.0884C11.5076 30.9006 12.0663 30.7544 12.6066 30.6538C16.3122 29.9638 19.4834 31.35 19.5141 31.3636C19.5974 31.401 19.6875 31.4204 19.7788 31.4204H28.4052C29.0181 31.4204 29.5167 31.9204 29.5167 32.5351C29.5167 33.0953 29.0987 33.5707 28.5445 33.6409L17.6111 35.0257C17.2876 35.0667 17.0454 35.3423 17.0465 35.6683C17.0474 35.9943 17.2913 36.2684 17.6149 36.3075L22.2584 36.8672C26.7565 37.4092 31.2276 36.5318 35.1888 34.3298L40.9914 31.1041C41.5019 30.8381 42.1229 30.9786 42.4702 31.4391C42.9042 31.9869 42.7156 32.8653 42.0941 33.1853L35.8682 36.5781C35.1238 36.9693 35.7618 38.1246 36.4862 37.7122L42.7121 34.3194C43.3431 33.9756 43.792 33.3753 43.944 32.6723C44.096 31.9686 43.9347 31.2357 43.5014 30.6613ZM28.6321 26.8603C29.0685 26.6315 29.5972 26.7539 29.8895 27.1515C30.2485 27.6145 30.0855 28.349 29.5635 28.6155L26.7723 30.1288H22.4005L28.6321 26.8603ZM29.2195 30.2712L33.1353 28.1482C33.5684 27.9135 34.1073 28.0603 34.3625 28.4822C34.6407 28.9191 34.4666 29.55 34.003 29.781L30.6065 31.5711C30.3427 30.9694 29.8403 30.4958 29.2195 30.2712ZM34.5613 33.2009C31.0093 35.1756 27.0205 36.0166 22.9906 35.6462L28.7068 34.9221C29.7673 34.7879 30.5964 33.9682 30.773 32.9433L37.9214 29.1758C38.3347 28.9579 38.8516 29.0806 39.1237 29.4614C39.4531 29.8991 39.3002 30.5821 38.8148 30.8363L34.5613 33.2009Z" fill="#99E39E"/>
<path d="M15.0383 17.547C15.7676 17.547 16.4693 17.3892 17.1236 17.078C17.4457 16.9249 17.5827 16.5395 17.4295 16.2174C17.2764 15.8954 16.8913 15.7583 16.5689 15.9116C16.0893 16.1396 15.5743 16.2553 15.0383 16.2553C13.0702 16.2553 11.469 14.6541 11.469 12.6861C11.469 10.718 13.0702 9.11692 15.0383 9.11692C17.0063 9.11692 18.6075 10.718 18.6075 12.6861C18.6075 13.2887 18.4547 13.884 18.1657 14.4077C17.9934 14.72 18.1068 15.1128 18.4191 15.2851C18.7315 15.4574 19.1243 15.344 19.2965 15.0317C19.6907 14.3174 19.8991 13.5064 19.8991 12.686C19.8991 10.0057 17.7185 7.8252 15.0383 7.8252C12.3581 7.8252 10.1775 10.0057 10.1775 12.686C10.1775 15.3663 12.3581 17.547 15.0383 17.547Z" fill="#99E39E"/>
<path d="M4.95391 14.6063L6.29239 14.8075C6.51093 15.7142 6.86679 16.573 7.3544 17.37L6.54977 18.4593C6.16958 18.9741 6.22209 19.676 6.67464 20.1284L7.59606 21.0499C8.04852 21.5023 8.75054 21.5548 9.26522 21.1747L10.3544 20.3701C11.1514 20.8577 12.0102 21.2137 12.917 21.4322L13.1182 22.7707C13.2134 23.4034 13.7469 23.8627 14.3867 23.8627H15.6897C16.3296 23.8627 16.8631 23.4034 16.9582 22.7706L17.1594 21.4322C18.0662 21.2137 18.9249 20.8577 19.7219 20.3701L20.8112 21.1747C21.3259 21.5548 22.0279 21.5024 22.4803 21.05L23.4017 20.1285C23.8542 19.6762 23.9067 18.9741 23.5266 18.4594L22.722 17.3702C23.2096 16.5732 23.5656 15.7144 23.784 14.8076L25.1224 14.6065C25.7552 14.5113 26.2145 13.9779 26.2145 13.3379V13.3321H30.047V21.5634C30.047 22.3938 30.7226 23.0694 31.553 23.0694H34.312C34.6073 24.3858 35.7847 25.3726 37.1889 25.3726C38.815 25.3726 40.138 24.0497 40.138 22.4235C40.138 20.7974 38.8151 19.4744 37.1889 19.4744C35.7846 19.4744 34.6072 20.4613 34.3119 21.7778H31.5529C31.4347 21.7778 31.3385 21.6816 31.3385 21.5634V13.3321H34.3119C34.6072 14.6486 35.7846 15.6355 37.1889 15.6355C38.815 15.6355 40.138 14.3125 40.138 12.6864C40.138 11.0602 38.8151 9.73723 37.1889 9.73723C35.7847 9.73723 34.6073 10.7241 34.3119 12.0404H31.3387V3.80935C31.3387 3.6911 31.4349 3.59494 31.5531 3.59494H34.312C34.6074 4.91141 35.7848 5.89823 37.1891 5.89823C38.8152 5.89823 40.1382 4.57531 40.1382 2.94912C40.1382 1.32292 38.8151 0 37.189 0C35.7848 0 34.6074 0.98682 34.312 2.3033H31.553C30.7226 2.3033 30.047 2.97885 30.047 3.80927V12.0404H26.2145V12.0347C26.2145 11.3949 25.7553 10.8614 25.1225 10.7662L23.784 10.5651C23.5655 9.65826 23.2096 8.79948 22.722 8.0025L23.5266 6.91333C23.9067 6.39856 23.8543 5.69654 23.4018 5.24416L22.4803 4.32266C22.028 3.8702 21.3259 3.81777 20.8112 4.19788L19.722 5.00242C18.9249 4.51481 18.0662 4.15886 17.1594 3.94041L16.9583 2.60193C16.8632 1.96917 16.3297 1.50984 15.6898 1.50984H14.3867C13.7469 1.50984 13.2134 1.96909 13.1182 2.60193L12.917 3.94041C12.0102 4.15895 11.1515 4.51481 10.3544 5.00242L9.26522 4.19788C8.75063 3.81769 8.04852 3.87011 7.59606 4.32266L6.67464 5.24399C6.22209 5.69645 6.16958 6.39848 6.54977 6.91316L7.35432 8.00233C6.86671 8.79931 6.51075 9.65817 6.2923 10.5649L4.95382 10.7661C4.32107 10.8612 3.86182 11.3947 3.86182 12.0345V13.3376C3.86182 13.9777 4.32115 14.5111 4.95391 14.6063ZM37.189 20.7659C38.1029 20.7659 38.8465 21.5094 38.8465 22.4233C38.8465 23.3373 38.1029 24.0808 37.189 24.0808C36.275 24.0808 35.5315 23.3373 35.5315 22.4233C35.5315 21.5094 36.275 20.7659 37.189 20.7659ZM37.189 11.0287C38.1029 11.0287 38.8465 11.7722 38.8465 12.6862C38.8465 13.6001 38.1029 14.3437 37.189 14.3437C36.275 14.3437 35.5315 13.6001 35.5315 12.6862C35.5315 11.7722 36.275 11.0287 37.189 11.0287ZM37.189 1.29155C38.1029 1.29155 38.8465 2.03509 38.8465 2.94903C38.8465 3.86298 38.1029 4.60651 37.189 4.60651C36.275 4.60651 35.5315 3.86298 35.5315 2.94903C35.5315 2.03517 36.275 1.29155 37.189 1.29155ZM5.15337 12.0423L6.926 11.7758C7.19791 11.7349 7.41413 11.5264 7.46475 11.2562C7.66154 10.2066 8.06786 9.22634 8.67217 8.34247C8.82728 8.11559 8.82187 7.81533 8.6585 7.59421L7.59322 6.15192L8.5039 5.24133L9.94619 6.3067C10.1672 6.46998 10.4674 6.47548 10.6944 6.32036C11.5783 5.71596 12.5586 5.30973 13.6081 5.11285C13.8783 5.06223 14.0867 4.84602 14.1277 4.57411L14.3941 2.80148H15.682L15.9485 4.57411C15.9894 4.84602 16.1979 5.06223 16.4681 5.11285C17.5175 5.30965 18.4979 5.71596 19.3818 6.32036C19.6087 6.47556 19.9089 6.46998 20.13 6.3067L21.5723 5.24133L22.483 6.15192L21.4177 7.5943C21.2544 7.81533 21.2489 8.11559 21.4041 8.34256C22.0085 9.22642 22.4147 10.2067 22.6116 11.2564C22.6623 11.5265 22.8785 11.735 23.1503 11.7759L24.9229 12.0424V13.3303L23.1503 13.5968C22.8785 13.6376 22.6623 13.8462 22.6116 14.1164C22.4147 15.166 22.0085 16.1463 21.4041 17.0301C21.2489 17.257 21.2544 17.5573 21.4177 17.7783L22.4831 19.2206L21.5724 20.1313L20.1301 19.0659C19.9091 18.9026 19.6088 18.8971 19.3819 19.0523C18.498 19.6567 17.5177 20.063 16.4681 20.2599C16.1979 20.3106 15.9894 20.5268 15.9485 20.7986L15.682 22.5712H14.3941L14.1277 20.7986C14.0867 20.5268 13.8783 20.3106 13.6081 20.2599C12.5584 20.063 11.5781 19.6567 10.6943 19.0523C10.4674 18.8972 10.1672 18.9026 9.9461 19.0659L8.50382 20.1313L7.59314 19.2206L8.6585 17.7783C8.82178 17.5573 8.82728 17.2569 8.67217 17.0301C8.06777 16.1463 7.66154 15.166 7.46475 14.1164C7.41404 13.8463 7.19791 13.6377 6.926 13.5969L5.15337 13.3304V12.0423Z" fill="#99E39E"/>
</g>
<defs>
<clipPath id="clip0_159_515">
<rect width="44" height="44" fill="white"/>
</clipPath>
</defs>
</svg>
